<svg xmlns="http://www.w3.org/2000/svg" width="95.626" height="108.975" viewBox="0 0 95.626 108.975">
  <g id="Introduction" transform="translate(-536.465 11.458)">
    <g id="variations" transform="translate(536.465 -11.458)">
      <g id="images">
        <g id="a-person_bust" data-name="a-person/bust" transform="translate(0 0)">
          <g id="head_Bun-2" data-name="head/Bun-2" transform="translate(0 0)">
            <path id="_-Ink" data-name="ðŸ–-Ink" d="M14.876-20.477a2.113,2.113,0,0,1,2.281,1.451l.02.051c.125.321.263.633.412.941,2.7-1.325,6.552-.984,8.26,1.7,1.219,1.916.475,4.191.016,6.223l-.3,1.339a2.074,2.074,0,0,1,1,1.725l0,.053-.123,1.867A9.687,9.687,0,0,0,27.5-6.412c.219-.4.456-.8.71-1.179a2.1,2.1,0,0,1,3.621,2.116,12.7,12.7,0,0,1-.789,1.33,11.77,11.77,0,0,0-.791,1.932A1.84,1.84,0,0,1,31.335-.54a5.155,5.155,0,0,1-2.6,4.7,1.841,1.841,0,0,1-1.452.253c-.081.109-.161.218-.239.328a10.58,10.58,0,0,1,1.775,1.834,31.929,31.929,0,0,1,4.659-.344A10.338,10.338,0,0,1,39.7,5.665c1.316.225,2.579.662,3.873.976,1.365.33,2.751.342,4.131.567a6.467,6.467,0,0,1,4.226,2.369,6.321,6.321,0,0,1,3.082,1.049c2.14,1.365,4.268,2.75,6.4,4.124a2.185,2.185,0,0,1,.975,2.309l-.01.06-.072.39.169.24a15.8,15.8,0,0,1,1.787,2.908,31.263,31.263,0,0,1,2.116,3.531,25.71,25.71,0,0,1,2.012,5.159c.118.451.235.905.312,1.365a5.2,5.2,0,0,1-.153,1.776c-.116.79-.158,1.59-.281,2.381a.967.967,0,0,1-.995.8c.175,1.335.3,2.68.423,4.013.17,1.906.286,3.817.386,5.728a4.539,4.539,0,0,0,2.331,1.548,5.347,5.347,0,0,0,3.156-.384c.626-.226,1.14.562.835,1.088-.96,1.653-3.012,1.646-4.566.914a4.319,4.319,0,0,1-1.663-1.339q.039.832.082,1.665l.026.5c.316,5.884,1,11.971-.107,17.8a22.367,22.367,0,0,1-20.46,18.373A28.22,28.22,0,0,1,35.7,83.423c-2.216-.882-1.355-2.681.184-2.167,2.65.886,7.519,2.205,11.876,1.635C58.025,81.549,66.732,76.414,65.838,54.3c-.127-3.136-.517-6.274-.6-9.409-.081-3.066-.051-6.133-.186-9.2L65,34.648c-.053-1.222-.109-2.449-.2-3.672-.111-.474-.2-.955-.337-1.42a21.133,21.133,0,0,0-1.44-3.669,1.019,1.019,0,0,1-.439.2,5.756,5.756,0,0,1-3.484-.349,5.479,5.479,0,0,1-1.431-.928,2.177,2.177,0,0,1-.454-.539,1.847,1.847,0,0,1-1.442-.551,1.294,1.294,0,0,1-.3-1.345l.016-.043-.039-.014a6.755,6.755,0,0,1-2.4,2.966,9.726,9.726,0,0,1-5.52,1.486,38.255,38.255,0,0,1-6.445-.628c-.553-.088-1.1-.188-1.64-.323-.021.021-.042.046-.065.067a5.972,5.972,0,0,1-6.6,1.179,10.265,10.265,0,0,1-3.394-2.525c-.014.548-.042,1.1-.089,1.637l-.02.215a4.286,4.286,0,0,1-1.047,2.81c-1.233,1.181-3.022.707-4.445-.061,0,.037,0,.075,0,.114q.576,1.958,1.156,3.92l.083.278a14.078,14.078,0,0,1,.673,2.829c.161,1.857-1.074,3.69-3.136,3.067a8.243,8.243,0,0,1-2.781-1.965l-.524-.453a50.173,50.173,0,0,1,2.384,13.654.456.456,0,0,1-.449.449,4.262,4.262,0,0,1-1.719-.311.938.938,0,0,1-.1-.009,6.519,6.519,0,0,1-2.631-.995,4.885,4.885,0,0,1,.214,1.834c-.012.156-.256.211-.291.039a4.791,4.791,0,0,0-5.3-3.483A6.019,6.019,0,0,0,6.753,53a9.427,9.427,0,0,0,2.08,7.425,5.016,5.016,0,0,0,2.952,1.844,3.764,3.764,0,0,0,1.637-.1,6.87,6.87,0,0,0,.649-.247c.312-.126.677-.146.972-.279a.739.739,0,0,1,1,1A2.879,2.879,0,0,1,15,63.961c.4.484.756,1.158.889,1.339a31.164,31.164,0,0,0,2.147,2.629,22.584,22.584,0,0,0,2.561,2.353l.383.3a8.976,8.976,0,0,1,2.259,2.339,1.236,1.236,0,0,1-1.058,1.844c-2.859-.04-4.938-2.553-6.418-4.749-.21-.314-.409-.646-.593-.986a2.1,2.1,0,0,1-.223.3l.163.439c.484,1.292-1.6,2.136-2.207.93a18.343,18.343,0,0,0-1.519-2.492,1.287,1.287,0,0,1-.845-.514c-.461-.669-.979-1.344-1.416-2.057-.242-.23-.491-.451-.746-.667-.074.065-.149.13-.221.2a9.33,9.33,0,0,1-1.2,2.02l-.1.134A6.7,6.7,0,0,1,3.174,70c-.461.088-.905-.486-.5-.853,1.058-.951,2.308-1.6,3.284-2.66a11.863,11.863,0,0,0,1.3-1.7l.086-.14c.063-.1.128-.207.195-.312q-.66-.45-1.321-.9c-1.212,1.036-2.79,1.51-4.131,2.368l-.133.087C.746,66.7-.531,64.9.441,63.918a41.476,41.476,0,0,0,2.915-3.572,7.022,7.022,0,0,1-.737-2.777c-.031-.278-.056-.556-.08-.835A3.358,3.358,0,0,1,.6,56.109l-.219-.156a6.544,6.544,0,0,1-2.149.314,1.87,1.87,0,0,1-1.3-3.152,3.931,3.931,0,0,1,4.391-.9l.144-.077a1.7,1.7,0,0,1,.025-.873l-.023-.157a4.032,4.032,0,0,1-.617-1.663A3.874,3.874,0,0,1,.9,48.031a4.785,4.785,0,0,1,.171-.48,3.1,3.1,0,0,1-.212-.929c-.034-.04-.067-.081-.1-.125a2.5,2.5,0,0,1,.112-3.092c0-.053.008-.106.015-.158Q.829,43.11.778,42.97A3.16,3.16,0,0,1-.306,40.438a2.626,2.626,0,0,1,.675-1.547.882.882,0,0,1,.008-.613A9.2,9.2,0,0,1,.285,33a2.385,2.385,0,0,1-.133-.874,2.633,2.633,0,0,1,2.54-2.513,2.3,2.3,0,0,1,.461.054l0-.031a3.549,3.549,0,0,1,.319-1.089.69.69,0,0,1-.214-.123A12,12,0,0,1,.519,29.483a.887.887,0,0,1-.99-1.289,5.943,5.943,0,0,1,.67-.836,8.585,8.585,0,0,0-1.047.071A2.028,2.028,0,0,1-2.6,26.491q-.768.748-1.54,1.492a2.062,2.062,0,0,1-3.473-1.33,2.927,2.927,0,0,1-1.067-.53A18.221,18.221,0,0,1-15.2,27.6a2.116,2.116,0,0,1-1.81-3.155,10.535,10.535,0,0,1,1.868-2.4,21.821,21.821,0,0,1-3.487.755,2.012,2.012,0,0,1-1.812-1.039A7.8,7.8,0,0,1-20.21,14.9c.044-.088.093-.172.14-.256q.176-.44.384-.867a5.019,5.019,0,0,1-.765-5.435,1.83,1.83,0,0,1-.212-1.613,13.81,13.81,0,0,1,2.489-4.171,4.44,4.44,0,0,1-.267-.63,5.223,5.223,0,0,1,1.493-5.273A7.238,7.238,0,0,1-13.98-4.922a8.5,8.5,0,0,1,1.719-2.139c.026-.058.053-.116.082-.174A6.422,6.422,0,0,1-7.121-10.55a2.081,2.081,0,0,1,1.372-1.769,6.429,6.429,0,0,1,.956-1.908,2.157,2.157,0,0,1,2.87-.753A12.575,12.575,0,0,1-.26-13.845a2.275,2.275,0,0,1,.8-.2l.076,0,1.73-.088c.724-.321,1.447-.658,2.172-.986a5.815,5.815,0,0,1,1.451-.883,5.892,5.892,0,0,1,1.83-.44c.5-.163,1-.307,1.516-.419a16.714,16.714,0,0,1,3.712-.4c.026-.323.038-.651.036-.982l0-.166A2.091,2.091,0,0,1,14.876-20.477ZM13.664,64.466c-.172.037-.346.067-.519.088.053.13.105.26.156.39.14.079.282.154.425.225A3.62,3.62,0,0,1,13.664,64.466ZM4.652,61.787,4.535,62l-.056.1a3.882,3.882,0,0,1,.742.014v-.026a.778.778,0,0,1-.093-.035A3.934,3.934,0,0,1,4.652,61.787Zm4.871-9.8A10.752,10.752,0,0,1,13.8,52.993l.121.059c1.247.619,3.31,1.764,3.136,3.4a.941.941,0,0,1-.921.921c-1.461-.1-2.3-1.574-3.286-2.494a16.937,16.937,0,0,0-3.433-2.516.208.208,0,0,1,.082-.383ZM2.485,30.368c-.372.012-.247.374-.056.072A.532.532,0,0,1,2.485,30.368ZM22.559,6.235c-3.522.093-7.067,2.173-9.705,4.276a34.373,34.373,0,0,0-6.032,6.351,36.551,36.551,0,0,0-1.167,3.562c-.216.793-.351,1.6-.532,2.4l-.056.245a3.845,3.845,0,0,0-.324.846,2.5,2.5,0,0,0,1.191.659.741.741,0,0,1,.366.212,7.85,7.85,0,0,0,.876-1.949l.007-.032a40.143,40.143,0,0,1,2.3-3.364,40.366,40.366,0,0,1,7.774-7.988,25.627,25.627,0,0,1,7.534-3.943A8.234,8.234,0,0,0,22.559,6.235Z" transform="translate(21.127 20.501)" fill-rule="evenodd"/>
          </g>
          <g id="face_Smiling" data-name="face/Smiling" transform="translate(54.729 58.787)">
            <path id="_-Ink-2" data-name="ðŸ–-Ink" d="M27.614,44.144a7.142,7.142,0,0,1-3-2.309,1.386,1.386,0,0,1-.281-1.077,1.554,1.554,0,0,1,.6-.973,1.446,1.446,0,0,1,1.084-.293,1.358,1.358,0,0,1,.916.606l.054.075a4.728,4.728,0,0,0,1.732,1.454A3.9,3.9,0,0,0,30.867,42a5.754,5.754,0,0,0,3.494-2c.131-.134.262-.272.394-.412a.619.619,0,0,1,.327-.252.7.7,0,0,1,.451.007.715.715,0,0,1,.355.269.657.657,0,0,1,.112.435,4.507,4.507,0,0,1-1.486,2.848,6.374,6.374,0,0,1-6.9,1.25ZM31.864,27.2c1.325.805,3.343,2.684,1.918,4.681-1.677,1.761-4.092-.258-5.282-1.171-1.1-.708-2.343,1.112-1.32,1.939,8.6,6.369,12.089-5.237,5.354-6.4C31.792,26.125,31.517,26.95,31.864,27.2ZM16.453,19.79c.146-1.817,2.913-2.23,3.188-.432a7.364,7.364,0,0,1-.769,4.541,1.353,1.353,0,0,1-2.567-.523A14.652,14.652,0,0,1,16.453,19.79Zm21.061-.8a1.476,1.476,0,0,1,1.61-.655c2.085.609,1.47,3.57.738,5.012a1.45,1.45,0,0,1-2.265.292c-.947-1.124-1.4-3.368-.2-4.475A1.522,1.522,0,0,1,37.514,18.986ZM18.843,11.838l.329-.058c1.019-.176,2.286-.346,3.006.474a1.191,1.191,0,0,1,0,1.658c-.9.732-1.9.448-2.986.51a11.877,11.877,0,0,0-2.61.445,17.736,17.736,0,0,0-5.034,2.6c-.211.142-.427-.129-.326-.326a10.4,10.4,0,0,1,4.537-4.231A11.22,11.22,0,0,1,18.843,11.838Zm16.771-.816.252.052c2.743.574,6.307,1.719,7.606,4.415.049.381,0,.463-.045.516l-.014.018a.355.355,0,0,1-.228.16l-.139-.035a7.875,7.875,0,0,1-1.523-.594l-.494-.244a13.624,13.624,0,0,0-1.766-.753,20.791,20.791,0,0,0-4.023-.889,1.65,1.65,0,0,1-.807-.306,1.212,1.212,0,0,1-.451-.688,1.233,1.233,0,0,1,.139-1.031,1.306,1.306,0,0,1,.637-.549A1.494,1.494,0,0,1,35.614,11.022Z" transform="translate(-11.197 -10.99)" fill-rule="evenodd"/>
          </g>
          <g id="facial-hair_Full" data-name="facial-hair/Full" transform="translate(39.118 76.335)">
            <path id="_-Ink-3" data-name="ðŸ–-Ink" d="M20.651,16.7a11.9,11.9,0,0,1,8.089-6.669,23.75,23.75,0,0,1,8.043-.374,15.68,15.68,0,0,1,4.22.766,6.186,6.186,0,0,1,2.735,2.27,12.848,12.848,0,0,1,1.773,3.875q.084.292.157.588a3.521,3.521,0,0,1-1.49,2.564,6.508,6.508,0,0,1-3.16.987c-.109-.052-.214-.106-.311-.161-1.731-.991-2.95-3.335-5.135-3.018-1.95.283-3.234,2.738-4.394,4.177A15.256,15.256,0,0,1,20.706,18.9a6.178,6.178,0,0,1-.055-2.19M48.2,14.18a14.359,14.359,0,0,0-1.117-2.408,13.7,13.7,0,0,0-6.4-5.681c-6.336-2.714-14.535-.8-19.652,3.65a12.371,12.371,0,0,0-4.05,6.163.894.894,0,0,0-.434.232c-3.7-2.329-7.5-4.569-10.483-7.8A20.768,20.768,0,0,1,1.465.168.239.239,0,0,0,1,.232l.011.195C.969.307.787.369.773.485c-.5,3.7-1.116,7.633-.545,11.357a11.838,11.838,0,0,0,2.7,5.606,55.558,55.558,0,0,0,4.754,5.314,19.407,19.407,0,0,0,3.47,3.078,41.481,41.481,0,0,0,4.84,2.3c1.641.715,3.307,1.376,5,1.948a46.839,46.839,0,0,0,10.469,2.291c2.857.278,6.123.58,8.861-.5a11.97,11.97,0,0,0,5.136-4.105,19.581,19.581,0,0,0,3.258-6.519c.664-2.435-.386-6.685-.526-7.078" transform="translate(0 0)" fill-rule="evenodd"/>
          </g>
        </g>
      </g>
    </g>
  </g>
</svg>
