<svg xmlns="http://www.w3.org/2000/svg" width="215.698" height="88.775" viewBox="0 0 215.698 88.775">
  <g id="Group_1" data-name="Group 1" transform="translate(-513.941 -803.849)">
    <g id="illustrations" transform="translate(513.941 803.849)">
      <g id="Character_sprinting" data-name="Character/sprinting" transform="translate(0 0)">
        <path id="Ink" d="M155.361,176.428c1.8.082,3.652.166,5.44.42a17.08,17.08,0,0,1,5.056,1.684c2.9,1.413,5.872,3.13,7.74,5.848a16.244,16.244,0,0,0,2.791,3.6,2.308,2.308,0,0,0,.964.587,3.419,3.419,0,0,0,.852-.078c.556-.028.767.266.767.818a2.682,2.682,0,0,1,1.327-.256,8.684,8.684,0,0,1,1.049.377,3.511,3.511,0,0,0,1.932-.28,12.742,12.742,0,0,1,4.989-.687c1.1.115,2.425.591,1.857,2-.471,1.172-2.231,1.765-3.343,2.056-.946.248-2.217.027-2.138,1.332.056.911.194,1.889,1.162,2.184.531.162,2.412.4,1.313,1.226-.811.607-1.094,1.676-1.711,2.478a6.24,6.24,0,0,1-3.1,2.223,24.242,24.242,0,0,1-4.3.5,18.922,18.922,0,0,0,3.791,3.409A24.747,24.747,0,0,0,186.15,209c1.446.711,3.008,1.205,4.5,1.809,1.568.634,3.148,1.26,4.767,1.753a89.78,89.78,0,0,0,10.058,2.3,29.9,29.9,0,0,0,4.955.284,31.336,31.336,0,0,1,5.118.638c.817.15,1.642.245,2.459.394.392.072,1.944.23,2,.8.091.935-.921,1.46-1.661,1.721a8.473,8.473,0,0,0-1.1.248c-.3.166-.181.41-.215.731a1.424,1.424,0,0,1-.681,1.061c-.315.213-.694.2-.477.608.1.186.35.3.466.5a1.171,1.171,0,0,1,.166.726,1.143,1.143,0,0,1-.759.954,4.51,4.51,0,0,1-2.121-.008c-1.137-.138-2.291-.152-3.413-.4-1.17-.259-2.308-.659-3.479-.925-.6-.136-1.2-.25-1.789-.439-.382-.123-.934-.442-1.34-.342-.381.094-.679.554-.928.821-.344.368-.676.747-1.026,1.11-.231.241-.469.476-.721.695-.082.071-.59.381-.6.465-.02.235.534.231.653.325.689.545-.346.89-.793.863-1.03-.063-2.066-.189-3.086-.341a38.685,38.685,0,0,1-7.175-1.564,40.769,40.769,0,0,1-6.665-2.862c-2.04-1.152-4.013-2.454-5.94-3.785A17.044,17.044,0,0,1,174.66,215a22.1,22.1,0,0,1-2.042-2.638c-1.533,1.481-3.009,3.039-4.656,4.4a23.027,23.027,0,0,1-5.273,2.821c.059.381,1.84.609,2.166.709,1.486.452,2.912,1.178,4.357,1.747,2.4.947,4.685,2.179,5.486,4.808.787,2.585-.126,5.187-1.239,7.523a40.821,40.821,0,0,1-4.762,7.714c-.8,1.022-1.667,1.964-2.548,2.916a3.113,3.113,0,0,0-1.081,2.929c.6-.189.716.283.32.683a2.439,2.439,0,0,1-1.428.483,20.026,20.026,0,0,1-4.317-.017,22.3,22.3,0,0,1-7.541-2.023c-1.168-.561-1.591.343-2.394,1.043-.632.551-1.5.908-1.983,1.62-.4.586-.137,1.512.684,1.293.639-.171,1.152-.884,1.828-.911,1.2-.049-1.065,1.665-1.355,1.874.574.513,1.224-.191,1.8-.308.555-.113.71.175.414.637-.231.361-.955.616-.473,1.055a5.5,5.5,0,0,0,1.774.714,27.34,27.34,0,0,0,4.642,1.078c.514.073,1.338.026,1.755.391.55.481.285,1.277.006,1.828a6.409,6.409,0,0,1-5.5,3.262c-1.386.092-2.785,0-4.175.078-1.524.082-3.051.2-4.578.153-2.455-.081-4.017-1.856-5.241-3.807-.777-1.24-1.494-2.516-2.167-3.815-.263-.508-.814-1.034-.907-1.6a1.615,1.615,0,0,1,.561-1.289,21.293,21.293,0,0,1,2.829-2.476,2.972,2.972,0,0,0,1.028-1.481c.211-.553.616-.789.973-1.23.392-.485.269-.571-.037-.967a1.723,1.723,0,0,1-.06-1.5c.193-.674.607-.822,1.224-1.039a7.482,7.482,0,0,0,1.54-.867c2.467-1.591,4.792-3.392,7.29-4.939,2.464-1.526,5.04-2.875,7.392-4.578-1.91-.257-3.594-1.288-5.4-1.9-.924-.313-1.84-.648-2.735-1.041a5.646,5.646,0,0,1-1.044-.5c-.306-.221-.542-.513-.862-.722a20.372,20.372,0,0,0-2.486-1.168,22.148,22.148,0,0,1-2.58-1.408,12.305,12.305,0,0,1-2.142-1.722,4.846,4.846,0,0,0-1.722-1.445c.075,1,1.317,1.833,2,2.436a29.6,29.6,0,0,0,3.486,2.619,21.947,21.947,0,0,1-4.693,2.76c-1.823.9-3.594,1.9-5.41,2.814-1.538.775-3.156,1.372-4.719,2.092a51.649,51.649,0,0,1-5.182,2.02,35.038,35.038,0,0,0-4.594,1.856,28.7,28.7,0,0,1-4.586,1.757,47.282,47.282,0,0,0-5.119,1.749,25.617,25.617,0,0,1-4.663,1.42c-.532.117-1.216.331-1.588-.184a3.607,3.607,0,0,1-.406-1.452c-.311-1.758-.335-3.544-.615-5.3a13.025,13.025,0,0,1-3.184.765c-.7.032-1.131.1-1.306.873.407.046,1.861.066,1.9.643.036.52-.844.525-1.156.54-.558.025-1.064-.066-1.362.48.439.162,1.412-.133,1.607.457.25.762-.887.76-1.3.821-.714.107-.641.668-.592,1.267.064.789.113,1.579.22,2.364.228,1.677.617,3.329.8,5.012.16,1.455.249,2.853-.791,4.013a2.8,2.8,0,0,1-1.657,1.059c-.667.056-.655-.411-1.07-.755a2.919,2.919,0,0,0-.891-.367,6.315,6.315,0,0,1-2.6-1.993c-1.669-2.256-2.266-5.626-2.431-8.361a34.29,34.29,0,0,1,.159-5.213c.086-.933.172-1.867.285-2.8.035-.288.093-.577.115-.866.012-.166-.067-.5.017-.659-.108.2-.3.053-.489-.107-.392-.329-.271-.961-.062-1.394.631-1.3,2.524-1.355,3.755-1.456a47,47,0,0,0,9.62-2.108c-.447-.67.256-1.112.8-1.342.841-.355,1.709-.667,2.557-1.006a42.946,42.946,0,0,1,5.8-1.967c1.817-.442,3.576-1.176,5.368-1.715,1.852-.556,3.671-1.192,5.493-1.839,3.609-1.283,7.221-2.594,10.723-4.15.885-.393,1.731-.849,2.585-1.3a9.91,9.91,0,0,0,2.1-1.174c.562-.51.9-1.219,1.509-1.682.55-.417,1.3-.423,1.758-.941a6.315,6.315,0,0,1,2.188-1.418c.269-.132,2.037-.8,2-1.176a28.224,28.224,0,0,0-3.812.551c-1.322.185-2.643.391-3.975.494a34.915,34.915,0,0,1-6.464-.113c-.321-.035-1.609-.3-1.831.045-.169.263.252.575.256.857a.491.491,0,0,1-.705.492c-.735-.28-.628-1.465-.559-2.066a32.072,32.072,0,0,1,.68-3.418,23.1,23.1,0,0,0-4.264,2.854,18.373,18.373,0,0,1-3.113,2.59c-1.14.578-1.818.085-1.771-1.187a5.331,5.331,0,0,1,.341-1.679c.1-.257.487-.983.3-1.256-1.042.831-2.077,1.664-3.171,2.427-.773.539-1.894,1.381-2.9,1.167-.892-.189-.8-1.17-.522-1.832A5.122,5.122,0,0,1,116,206.852c.361-.362.874-.686,1.055-1.188a30.127,30.127,0,0,1-3.685,1.324c-.892.269-1.516,1.386-2.553,1.221s-.625-1.449-.21-2.007a5.217,5.217,0,0,1,1.081-1.023c.38-.282.957-.527,1.144-1a15.32,15.32,0,0,1-3.682.551c-.741-.043-1.979-.367-1.833-1.364s1.492-1.087,2.248-1.275a29.466,29.466,0,0,0,3.011-1.106c2.006-.742,4.05-1.337,6.1-1.928l.648-.187c2.316-.668,4.646-1.236,6.991-1.791,1.159-.274,2.314-.573,3.482-.807,1.13-.226,2.278-.357,3.4-.628-.945-1.427.2-2.6,1.435-3.279-.784-.159-1.581-.254-2.358-.446-.664-.164-1.3-.416-1.972-.561a8.183,8.183,0,0,1-3.277-1.092,3.2,3.2,0,0,1-.449-5.1,8.91,8.91,0,0,1,6.116-2.476,20.679,20.679,0,0,1,7.659,1.281,13.549,13.549,0,0,1,3.32,1.723c.668.5,1.724,1.465,2.621,1.465-1.074-1.3-2.391-2.642-2.585-4.4a5.349,5.349,0,0,1,1.839-4.513C148.078,176.092,152.257,176.287,155.361,176.428Zm-14.436,71.377a16.674,16.674,0,0,1-2.438,2.716c-.3.294-.9.669-.924,1.13-.023.376.438.8.64,1.1a36.876,36.876,0,0,0,3.246,4.681c1.472,1.57,3.152,1.875,5.236,1.88,2.314.005,4.66.295,6.97.173a5.726,5.726,0,0,0,4.859-2.747,4.976,4.976,0,0,0-2.223-.164,14.936,14.936,0,0,1-2.777-.17,11.922,11.922,0,0,1-2.457-.693,8.085,8.085,0,0,1-1.188-.592c-.275-.17-.482-.431-.753-.6-1-.616-2.149,1.343-3.215,1.305-.653-.023-.417-.665-.145-1.025a8.989,8.989,0,0,1,1.992-1.523c-.6-.554-1.281.027-1.854.316a8.341,8.341,0,0,1-2.26.942c.06-1.031,1.462-1.584,2.236-2,.344-.187.776-.36.861-.77a3.953,3.953,0,0,0-.078-1.059c-.041-.4-.071-.523-.493-.635-.512-.136-1.027-.1-1.54-.266A13.767,13.767,0,0,1,140.925,247.806ZM95.334,231.556c-.343.1-.689.177-1.037.251-.689.145-1.378.3-2.069.428-.347.066-.731.024-.834.355-.053.17.08.475.1.651a8.324,8.324,0,0,1,.047.96c.036,2.948-.58,5.88-.309,8.828.229,2.491.766,5.642,2.6,7.5a12.862,12.862,0,0,0,2.756,2.218c.78.429,1.869-.648,2.028-1.393a3.736,3.736,0,0,0-.2-1.613c-.159-.66-.32-1.319-.477-1.979a25.955,25.955,0,0,1-.738-4.279,11.3,11.3,0,0,1,0-1.408c.015-.257.136-.877-.044-1.1-.233-.285-.764-.1-1.079-.074a3.048,3.048,0,0,1-1.019-.082c-.8-.21-.943-.848-.067-1.144.612-.206,1.731.093,2.245-.3.6-.467-.617-.531-.9-.543-.38-.016-1.639.083-1.574-.625.048-.525,1.131-.559,1.511-.582.81-.048,1.835.256,2.185-.721.14-.391-.7-.59-.917-.784a2.921,2.921,0,0,1-.728-1.943c-.044-.652.6-2.911-.379-2.97A4.606,4.606,0,0,0,95.334,231.556Zm48.053,13.036c-.575.685-1.072,1.435-1.608,2.151,1.256.693,2.541,1.251,3.84,1.847.591.271,1,.486,1.576.075.41-.295.718-.714,1.118-1.021.575-.44,1.176-.844,1.766-1.264-1.74-.635-3.506-1.192-5.245-1.828C144.183,244.314,143.857,244.033,143.387,244.593Zm-14.326-2.175c.372.377-.344,1.423-.485,1.78a27.832,27.832,0,0,0,3.43-.508c.386-.08.244.39.1.545a1.729,1.729,0,0,1-.774.318,20.761,20.761,0,0,1-2.68.507c.412.507,1.4,1.3,1.085,2.064a19,19,0,0,0-1.628-1.587c-.184.275-.566,1.244-.985,1.185-.657-.093.009-1.226.146-1.5-.443,0-2.106.389-2.338-.156s1.368-.54,1.664-.671l-.055-.068-.056-.067a1.618,1.618,0,0,1-.465-.9c.5.171.828.949,1.373.96.517.011.748-.767.932-1.135C128.431,242.979,128.787,242.139,129.062,242.417Zm55.971-7.332c1.112.938.357,2.831-.485,3.681-.943.953-3.042,1.829-4.237.857-.654-.532-.418-1.343-.257-2.05a3.131,3.131,0,0,1,.941-1.988C182.007,234.746,183.9,234.134,185.032,235.085Zm-2.258.545a3.5,3.5,0,0,0-2.442,2.433c-.338,1.465,1.183,1.573,2.185,1.352a3.125,3.125,0,0,0,2.664-2.651C185.236,235.512,183.618,235.451,182.775,235.631ZM103.819,229.3a34.622,34.622,0,0,1-4.857,1.791c-.52.109-.734.229-.863.714a4.736,4.736,0,0,0-.222,2.075c.267,1.472,2.315,1.291,3.452,1.234a4.92,4.92,0,0,0,2.213-.287c.37-.266.215-.765.157-1.153A20.27,20.27,0,0,1,103.819,229.3Zm88.587-14.025c-.6.113-1.632.6-.775,1.212a4.926,4.926,0,0,0,2.1.558,9.5,9.5,0,0,1,3.854,1.108c2.111,1.373,1.853,3.963,1.221,6.083.455.268,1.791-1.484,2.043-1.769q1.531-1.734,3.075-3.456c.441-.491-3.171-2.187-3.5-2.34a14.247,14.247,0,0,0-5.241-1.477A10.952,10.952,0,0,0,192.406,215.27Zm-7.448-4.3c-.164.413.123.6.387.886a19.993,19.993,0,0,1,3.335,5.837,20.54,20.54,0,0,1,.95,3.02c.249,1.016,1.039,1.287,1.986,1.576,2.181.664,4.478.887,6.667,1.543.587.176.7-1.114.738-1.441a4.332,4.332,0,0,0-.482-2.722c-.924-1.551-2.777-1.88-4.43-2.145a6.079,6.079,0,0,1-2.939-.953.734.734,0,0,1-.136-1.1,2.906,2.906,0,0,1,2.314-.89c.409-.029,2.942.227,3.025-.073-1.261-.411-2.556-.682-3.8-1.152-.969-.367-1.946-.713-2.925-1.056l-.978-.343c-.995-.349-1.906-.773-2.86-1.193C185.455,210.609,185.126,210.55,184.958,210.974ZM206.35,217.7a8.228,8.228,0,0,0-.866,1.259,8.022,8.022,0,0,1-1.118,1.39,39.671,39.671,0,0,1,5.8,1.44c.984.33,2,.493,3.008.73a6.163,6.163,0,0,0,2.619.324c-1-1.373-3.653-.993-4.352-2.656-.476-1.131.694-2.033,1.65-2.23a40.168,40.168,0,0,1,5.148-.491c.018-.649-6.141-.985-6.75-1.038-1.081-.094-2.21-.3-3.289-.334C207.2,216.059,206.876,216.992,206.35,217.7Zm-23.5-4.749c-.593.574-1.174,1.16-1.767,1.734a9.19,9.19,0,0,0-1.225,1.23c-.392.574.295.85.752,1.122,1.155.686,2.349,1.327,3.525,1.98a17.335,17.335,0,0,0,3.32,1.676c.623.183,1.209.468,1.81.709-.29-2.6-1.785-4.969-3.164-7.14-.317-.5-.643-.99-.96-1.488-.16-.251-.455-.843-.79-.894C183.856,211.8,183.147,212.66,182.848,212.95Zm30.227,6.628a2.509,2.509,0,0,0,2.262.312q.3-.123.6-.259C215.388,218.889,213.782,219.341,213.074,219.578Zm-59.851-9.062a18.09,18.09,0,0,0-3.765,2.025c-.411.322-1.33,1-1.115,1.611.184.525,1.2.972,1.684,1.132,2.541.841,5.433.229,7.773,1.773.633.418.84.964,1.31,1.513a1.255,1.255,0,0,0,1.535.229c.751-.271,1.442-.685,2.2-.951.385-.136,1.04-.226,1.08-.746.188-2.452-.334-5.575-2.5-7.075C159,208.341,155.655,209.419,153.223,210.515Zm-1.374,5.713c-.062.311,2.342.874,2.6.946,1.452.4,2.808,1.351,4.312,1.5.261-.583-1.822-1.512-2.151-1.632A20.55,20.55,0,0,0,151.849,216.229Zm47.211-1.089a19.378,19.378,0,0,1,5.117,2.934c.527.439,1.807-1.643,2.094-1.962A57.233,57.233,0,0,1,199.06,215.14ZM164.994,200.5c-1.69,1.117-3.161,2.576-5.016,3.432a4.969,4.969,0,0,0,1.769-.416c.54-.128,1.086-.213,1.611-.395.323-.112,1.656-.832,1.906-.344.391.763-2.362,1.291-2.754,1.421q-1.983.659-3.944,1.378a39.982,39.982,0,0,1-3.844,1.294,29.4,29.4,0,0,0-4.019.95c-1.131.464-2.1,1.232-3.194,1.774a14.932,14.932,0,0,0-3.28,1.689,13.5,13.5,0,0,0,3.564,2.709c.213-1.669,2.168-2.619,3.506-3.261,2.917-1.4,7.3-3.508,10.271-1.138,2.173,1.732,2.467,5.019,2.467,7.592a10.99,10.99,0,0,0,1.673-.767c.379-.2.383-.738.431-1.1a9.806,9.806,0,0,1,.423-1.739c.408-1.261.919-2.49,1.405-3.722a43.369,43.369,0,0,0,2.243-6.053c.316-1.368.692-3.719-.957-4.4C167.829,198.815,166.152,199.73,164.994,200.5Zm-7.379-5.567c-.276.185-.173.739-.154,1.017.068,1.011.026,2.026.059,3.039.041,1.234.05,3.5,1.322,4.188.87.473,1.952-.236,2.646-.719,1.175-.817,2.253-1.765,3.444-2.562,1.412-.945,4.088-2.253,5.439-.475a4.694,4.694,0,0,1,.446,3.516,20.107,20.107,0,0,1-1.362,4.259,53.2,53.2,0,0,0-3,8.765,28.615,28.615,0,0,0,3.879-3.226c.947-.816,2.353-1.754,2.571-3.085.049-.3.34-.515.54-.716a3.12,3.12,0,0,0,.609-.86,8.952,8.952,0,0,0,.75-2.34,14.312,14.312,0,0,0-.125-5.06c-.13-.761.061-1.577-.116-2.319-.123-.515-.486-.485-.97-.6-1.741-.422-3.485-.831-5.227-1.249a9.4,9.4,0,0,0-2.211-.478,3.9,3.9,0,0,0-1.63.629c-.854.428-2.213,1.176-3.194.751-1.143-.5.189-1.614-.384-2.144-.393-.363-1.568-.145-2.1-.235C158.553,194.972,157.882,194.749,157.614,194.929Zm17.99,14.618a2.349,2.349,0,0,0-1.771,1.2c-.465.719-.521,1.076.143,1.639.716.607,1.464,1.207,2.224,1.753.963.693,2.031,1.218,2.983,1.928.417.311,2.308-2.127,2.637-2.461.453-.461.917-.923,1.4-1.348.178-.155.734-.515.734-.779,0-.667-1.478-1.263-1.953-1.447a9.545,9.545,0,0,0-3.318-.594A18.381,18.381,0,0,0,175.6,209.546Zm3.705-2.933c-.781.415-1.6.764-2.381,1.17-.279.144-2.036.882-1.947,1.324a23.069,23.069,0,0,1,5.917-.077,6.15,6.15,0,0,1,2.468.992c.56.4.987,1.176,1.544.488a22.905,22.905,0,0,1-3.165-2.325c-.441-.363-.894-.7-1.342-1.057C180.137,206.918,179.7,206.407,179.309,206.613Zm-46.771-9.638c-.619.087-1.221.251-1.829.392-2.461.57-4.931,1.082-7.386,1.685a101.884,101.884,0,0,0-14.606,4.292c.392.434,1.433.12,1.92.035.954-.167,1.879-.458,2.821-.678.921-.215,1.846-.471,2.775-.65.428-.082,1.183-.191,1.2.451.024.91-1.742,1.59-2.391,1.922-.693.356-1.365.749-2.025,1.162-.522.327-1.484.763-1.654,1.412,1.694-.718,3.388-1.432,5.071-2.174.634-.279,1.276-.543,1.88-.884a3.928,3.928,0,0,1,1.4-.662c.645-.049.752.537.48,1.01a5.689,5.689,0,0,1-1.559,1.34,22.379,22.379,0,0,0-1.834,1.749,5.357,5.357,0,0,0-1.383,1.656c.885.3,1.89-.653,2.54-1.121,1.021-.737,1.973-1.538,2.947-2.334a4.647,4.647,0,0,1,1.749-1.189c.831-.154.763.8.561,1.321-.451,1.172-1.506,2.148-1.581,3.469-.046.813.642.5,1.1.177a25,25,0,0,0,2-2.016,21.152,21.152,0,0,1,5.717-3.71c.374-.161.509-.738.623-1.085.17-.518.365-1.02.569-1.527a22.193,22.193,0,0,1,1.441-3.332c.175-.286.626-.577.253-.745A1.791,1.791,0,0,0,132.538,196.975Zm17.854-1.876c-.633.074-1.275.067-1.909.134-1.036.109-.584,1.37-.751,2.129-.491,2.236-2.861,2.658-4.656,1.6a5.861,5.861,0,0,1-2.159-2.439c-.31-.567-.54-.659-1.181-.517a8.5,8.5,0,0,1-1.287.109c-.563.041-.612.16-.623.7a1.7,1.7,0,0,1-.4,1.191,6.537,6.537,0,0,1-2.478,1.586,4.145,4.145,0,0,0-2.316,1.518,4.606,4.606,0,0,0-.565,1.467c-.076.547.11.886-.209,1.391a12.355,12.355,0,0,0-1.3,3.388c-.109.388-.152.548.271.655a8.339,8.339,0,0,0,2.1-.1c.445-.017.705-.8.85-1.121a19.169,19.169,0,0,1,.972-1.79,24.5,24.5,0,0,1,2.643-3.8c.772-.875,1.911-1.963,2.9-.734a28.5,28.5,0,0,0,2.816,3.645,2.156,2.156,0,0,0,3.126.063,10.962,10.962,0,0,0,2.478-3.192c.7-1.261,1.227-2.608,1.908-3.877.214-.4,1.2-1.474.9-1.935C151.316,194.851,150.677,195.066,150.392,195.1Zm5.306-.275c-.558.026-1.119-.036-1.676-.047-1.009-.02-1.853.015-2.36.983-.447.854-.828,1.762-1.237,2.636a23.942,23.942,0,0,1-3.119,5.459c-1.206,1.432-2.765,2.153-4.335.785a10.018,10.018,0,0,1-1.724-2.158c-.4-.617-.857-1.7-1.528-2.061-.748-.4-1.6.518-2.061,1.017a20.836,20.836,0,0,0-2.028,2.777c-.447.691-.876,1.4-1.311,2.095-.176.283-.894,1.21-.655,1.563s1.409.112,1.748.08c.808-.077,1.615-.1,2.424-.174,2.515-.216,4.992-.769,7.513-.917a42.223,42.223,0,0,0,4.932-.71c1.59-.284,3.189-.477,4.762-.852.925-.22,1.851-.441,2.774-.67.319-.079,1.829-.295,1.922-.71a2.187,2.187,0,0,1-1.953-1.6,12.946,12.946,0,0,1-.555-4.024c-.015-.515-.018-1.03-.018-1.545v-.618c0-.369.159-1.04-.173-1.3C156.732,194.6,156.054,194.807,155.7,194.824Zm20.631,8.2a11.235,11.235,0,0,1-.943,4.89c.719.115,1.574-.787,2.177-1.089.232-.117,1.771-.676,1.255-1.1C177.871,204.937,177.25,203.839,176.329,203.026Zm20.617,1.361c.211.416-.05.944-.191,1.339,1.1.264,2.19.523,3.3.747.833.169.542.668-.181.634-1.006-.048-1.941-.474-2.942-.529-.953-.053-1.065.78-1.878.94.028-.458.4-.776.664-1.12-.439-.225-.887-.434-1.312-.682-.22-.128-.829-.667-.595-.953s.857.253,1.078.372c.314.17.94.543,1.31.436C196.7,205.423,196.595,204.7,196.946,204.387Zm-15.808-10.905a3.7,3.7,0,0,0-1.351.077,6.745,6.745,0,0,0-1.273.92c-.34.287-.51.636-.933.805s-.856.155-1.019.671c.383.105,1.136-.034,1.436.248.437.41-.325.862-.642.991a2.566,2.566,0,0,1-1.288.09c-.2-.015-.2-.077-.365.023-.613.371-.189,1.689.01,2.17.973,2.354,4.3,1.561,6.213,1.32-.61-.615-1.609-1.293-1.659-2.258-.015-.287.056-.8.425-.825.3-.019.649.427.833.6.545.521,1.249,1.384,2.037,1.459,1.053.1,1.863-1.606,2.3-2.35-.537-.1-1.125-.095-1.436-.622a4.729,4.729,0,0,1-.371-2.29c.006-.6.2-1.256-.605-1.286C182.711,193.2,181.884,193.43,181.138,193.482Zm-70.692,1.539c-.153.335-.82.466-1.113.555-1.113.34-2.2.772-3.285,1.2a37.413,37.413,0,0,0-6.358,3.057c-.374.235-.191-.218-.094-.382a3.143,3.143,0,0,1,1.017-.85,15.894,15.894,0,0,1,2.926-1.441c2.046-.813,4.122-1.676,6.22-2.335C110,194.745,110.652,194.571,110.446,195.021Zm25.409,1.657a5.956,5.956,0,0,0-1.274.082c-.51.173-.426.523-.576.953-.256.731-.53,1.455-.8,2.182a7.3,7.3,0,0,0,2.772-1.279c.474-.255,2.122-1.1,1.625-1.876C137.291,196.25,136.307,196.631,135.855,196.678ZM147.1,195.4c-.612-.011-1.285.174-1.9.205-.83.041-1.648.2-2.477.237-.546.025-1.081.137-1.621.211a5.053,5.053,0,0,0,2.9,2.784c1.039.356,2.493.416,3.2-.568C147.613,197.708,148.281,195.426,147.1,195.4Zm31.864-5.141a11.741,11.741,0,0,0-1.759,1.646,12.715,12.715,0,0,0-3.445,4.886c-.083.267.547.5.717.513.36.022.433-.16.575-.464a8.615,8.615,0,0,1,1.043-2.238,21.882,21.882,0,0,1,2.295-2.22c.538-.457,1.856-1.1,2.011-1.857C180.584,189.635,179.37,190,178.965,190.264Zm-17.212,5.172c-.377.11-.407.459-.494.835-.347,1.512,3.161-.138,3.65-.385-.162-.485-1.761-.4-2.131-.416A3.688,3.688,0,0,0,161.753,195.435Zm20.721.785c-.52.02-.28-2.1.311-1.89C183.292,194.514,182.808,196.208,182.475,196.221ZM109.4,193.779a6.851,6.851,0,0,1-3.035,1c-1.458.325-2.9.739-4.35,1.113-.913.236-.4-.327.058-.538a13.4,13.4,0,0,1,2.517-.758c.91-.217,1.84-.361,2.744-.6C107.958,193.835,108.766,193.416,109.4,193.779Zm24.762-14.771a7.653,7.653,0,0,1,2.543.909c.642.384.616.981-.2.634-3.8-1.616-8.506-.637-12.213.794-.409.158-.379-.187-.255-.452a1.733,1.733,0,0,1,.883-.748,13.491,13.491,0,0,1,3.4-1.011A16.288,16.288,0,0,1,134.16,179.008Zm.555-2.322a2.556,2.556,0,0,1,1.331.867c.345.482.071.728-.408.445a6.588,6.588,0,0,0-1.637-.8c-.324-.088-.311-.291-.078-.47A.949.949,0,0,1,134.715,176.686Z" transform="translate(-89.941 -176.349)" fill-rule="evenodd"/>
      </g>
      <g id="Character_chilling" data-name="Character/chilling" transform="translate(88.781 7.958)">
        <path id="Accent" d="M432.565,583.869c5.084-.4,9.934,1.491,14,4.444a44.092,44.092,0,0,1,12.68,14.989c.32.246.634.5.947.754a42.765,42.765,0,0,1,4.754,4.4c.808.894,2.929,3.069,2.008,4.44a1.628,1.628,0,0,1-.838.574c-.9.323-1.84.486-2.729.864a6.74,6.74,0,0,0-2.937,2.113c-.2.283-.252.617-.521.742a4.18,4.18,0,0,1-1.133.111l-1.878.184a31.378,31.378,0,0,0-4.447.516l-6.62,1.635a27.679,27.679,0,0,0-4.194,1.068c-1.916.82-3.744,2.021-5.577,3.011l-2.66,1.436a2.631,2.631,0,0,1-1.237.276l-3.661.282c-.591.046-.874.283-.952-.308l-.851-6.5-.45-3.437c-.027-.2-.019-1.217-.186-1.339-.105-.077-.721.088-.835.1l-1.662.2-3.591.44c-.1.012-.635.006-.7.085s.064.628.076.743l.381,3.621c.015.14.185.789.1.9-.062.08-.513.089-.6.1l-3.464.566a13.714,13.714,0,0,0-2.689.439,6.794,6.794,0,0,0-1.281.921L406.18,626.4c-.854.629-2.005.468-3.045.548l-12,.914.03-1.121q.079-2.97.158-5.939l.069-2.589c0-.164-.061-.643.046-.765.142-.161.778-.23.976-.289l1.986-.588,5.827-1.725,5.759-1.705,1.97-.583c.152-.045.682-.1.787-.233.133-.162.073-.852.095-1.057.1-1,.253-2,.434-2.985,1.305-7.134,4.355-14.381,10.011-19.141A23.421,23.421,0,0,1,432.565,583.869Zm.9,14.307c-.5-.591-1.349-1.556-2.238-1.4-.723.13-1.116,1.026-1.368,1.622a28.952,28.952,0,0,0-1.641,7.7c-.2,1.606-.357,3.219-.458,4.833l10.819-.833c-.17-1.15-.307-2.31-.512-3.454a6.9,6.9,0,0,0-.63-1.619A29.258,29.258,0,0,0,433.461,598.176Z" transform="translate(-367.809 -551.498)" fill="none" fill-rule="evenodd"/>
        <path id="Ink-2" data-name="Ink" d="M198.423,156.556l.088,0c2.393.064,4.5,1.6,6.141,3.235a7.238,7.238,0,0,1,1.895,2.858,7.52,7.52,0,0,1-.036,3.956c-.674,2.827-1.5,5.669-2.425,8.424-.456,1.355-1.117,2.684-1.461,4.072-.284,1.143.911,1.975.957,3.15a2.885,2.885,0,0,1-1.846,2.721c-.466.18-1.031.03-1.461.215-.393.169-.531.667-.606,1.05a6.247,6.247,0,0,0-.055,1.57,3.081,3.081,0,0,0,.095,1.135c.108.2.3.262.474.4a6.214,6.214,0,0,1,.588.625c.334.35.656.539.746,1.049l.145-.347c.249.456.434.674.2,1.107.735-.072,1.17,1.261,1.363,1.767.353.926.6,1.887.949,2.813a30.472,30.472,0,0,1,1.431,3.851c.26,1.117.465,2.264.7,3.388a11.245,11.245,0,0,0,.481,1.88,6.613,6.613,0,0,0,.371.6,1.38,1.38,0,0,1,.1.75c.012.558.364.921.475,1.463.118.579.215,1.165.334,1.746a32.626,32.626,0,0,1,.793,3.522c.125,1.376.392,2.734.526,4.11a33.079,33.079,0,0,0,.169,3.656,9.446,9.446,0,0,1-.152,3c-.025.26.376,1.81-.268,1.512a2.788,2.788,0,0,1,.3.94,4.9,4.9,0,0,1-.167,1.124,10.567,10.567,0,0,1-.552,2.126c-.338.744-.852.833-1.551,1.089-.473.173-1.326.79-1.7.13-.222.677-.657.209-1.144.171,0,0-.279.1-.331.112a2.724,2.724,0,0,1-.544-.072,4.383,4.383,0,0,0-1.257.108c-.957.2-1.883.473-2.855.611-1.9.27-3.757.142-5.657.261-3.718.231-7.5.037-11.22-.063a9.873,9.873,0,0,1-1.224-.016c-.425-.066-.518-.267-.849-.469-.55-.335-1.161-.009-1.732.113-1.676.359-3.427.385-5.116.733A73.757,73.757,0,0,0,163.64,236a16.157,16.157,0,0,1-4.636,1.37c-1.863.04-1.423-1.8-1.081-2.976-1.076.286-2.767,1.592-3.861.834-1.3-.9.355-2.4.433-3.466-2.33.484-4.974,1.545-7.339.682a6.273,6.273,0,0,0-1.34-.574,14.64,14.64,0,0,0-1.558.117,26.582,26.582,0,0,0-3.475-.019c-2.607.321-5.178.5-7.806.566-2.646.07-5.292.226-7.94.22-1.344,0-2.712-.163-4.053-.091-.527.028-1.66.411-2.03-.125-.371.445-.687.148-1.163.2.088-.009-.248.186-.3.2a1.956,1.956,0,0,1-.746.062c-.7-.007-1.347.319-2.04.288a1.306,1.306,0,0,1-.456-.119c-.035-.014-.027-.166-.083-.179-.339-.076-.251.132-.467.237-.239.116-.592-.072-.456.285-.648-.028-1.261.19-1.85-.194.279.616-.694.1-.949.094a7.917,7.917,0,0,0-1.214.243c-.505.058-1.013-.176-1.508-.033-.387.112-.52.382-.923.244a1.369,1.369,0,0,1-.723-.649c-.229-.384-.259-.555-.812-.562-.41-.005-.823.083-1.237.082a3.048,3.048,0,0,0-1.429.174,10.374,10.374,0,0,1-1.258.8c-2.327.856-4.882.629-7.311.615-1.025-.006-1.776.088-2.064-1.081-.243-.988-.34-2.021-.572-3.017a12.121,12.121,0,0,0-1.227-3.443c-.611-1.058-1.126-2.151-1.658-3.25a25.213,25.213,0,0,0-4.367-6.087,4.138,4.138,0,0,1-1.432-2.508,4.253,4.253,0,0,1,.872-2.486,2.314,2.314,0,0,1,2.042-1.182,2.846,2.846,0,0,1,1.22.8,4.654,4.654,0,0,0,1.365.748,12.143,12.143,0,0,1,3.149,1.632,22.778,22.778,0,0,1,2.856,2.487,20.132,20.132,0,0,1,4.4,5.792,20.821,20.821,0,0,1,.89,2.66c.257.9.956.654,1.743.524.958-.158,1.922-.243,2.886-.343.363-.038.875-.049,1.094-.392.241-.379-.035-.869-.057-1.262a3.721,3.721,0,0,1,.075-.569c.02-.233-.049-.445-.049-.677a1.563,1.563,0,0,1,.62-1.244,9.871,9.871,0,0,1,2.64-1.212,37.136,37.136,0,0,1,3.634-.936c1.359-.341,2.725-.648,4.091-.958,1.342-.3,2.682-.617,4.039-.852a17.312,17.312,0,0,0,2.43-.338c.82-.267.684-1.092.681-1.823a24.649,24.649,0,0,1,.322-3.644,44.137,44.137,0,0,1,2.086-7.445,19.225,19.225,0,0,1,3.361-6.472,28.219,28.219,0,0,1,5.467-4.886c2.072-1.429,4.377-2.461,6.54-3.736a3.882,3.882,0,0,1-1.308-1.227,4.446,4.446,0,0,1-.164-2.052,6.111,6.111,0,0,1,.309-2.147c.148-.4.721-1.146.633-1.576-.147-.722-1.727-1.25-2.309-1.547a22.256,22.256,0,0,1-2.667-1.529,6.678,6.678,0,0,1-2.055-2.111,4.35,4.35,0,0,1-.341-.772c-.1-.3-.03-.4-.329-.423a3.907,3.907,0,0,0-1.595.656c-2.073,1.091-4.349,2.56-6.8,2.462a2.206,2.206,0,0,1-2.2-1.24c-.413-1.219.449-2.478,1.206-3.358-1.476.232-4.2.957-5.363-.36-.776-.878-.191-2.271.46-3.033a11.386,11.386,0,0,1,3.219-2.258,17.255,17.255,0,0,1-4.15-1.756c-1.169-.848-1.024-2.151-.1-3.151a9.107,9.107,0,0,1,4.07-2.014,16.389,16.389,0,0,1,5.034-.415,14.921,14.921,0,0,1,8.249,2.911,32.332,32.332,0,0,1,3.836,2.987c1.111,1.031,2.3,1.99,3.39,3.032,1.06,1.01,1.895,2.261,3.014,3.2a10.2,10.2,0,0,0,3.2,2.3c1.282.378,2.436,1,3.729,1.374a24.386,24.386,0,0,1,4.086,1.8c5.7,2.822,11.828,4.659,17.842,6.685,3.076,1.036,6.172,1.767,9.313,2.558a15.688,15.688,0,0,0,4.669.538,5.925,5.925,0,0,1,1.1.026c.271.038.478.141.72-.022.349-.233.48-.84.687-1.185-1.158-.359-2.292-.748-2.82-1.935a10.818,10.818,0,0,1-.652-2.424c-.078-.432-.08-.868-.147-1.3a4.073,4.073,0,0,1-.141-.732c-.026.136-.889-.311-1.014-.393a1.721,1.721,0,0,1-.567-1.509,2.709,2.709,0,0,1,.608-1.757,1.53,1.53,0,0,1,.72-.469c.2-.059.473.018.652-.041.8-.264.887-2.237,1-2.956a25.214,25.214,0,0,1,1.036-4.612,44.846,44.846,0,0,1,3.747-7.975c1.288-2.159,2.575-4.8,5.408-4.829Zm-24.487,66.464a26.913,26.913,0,0,0-3.352.948,30.085,30.085,0,0,1-3.144.735c-2.112.416-4.27.8-6.351,1.338a7.542,7.542,0,0,0-1.406.736c-.379.178-.735,0-1.129-.017a9.839,9.839,0,0,0-2.636.456,23.836,23.836,0,0,0-5.442,2.294c-.158.085-1.225.573-1.174.775.041.165,1.4-.278,1.613-.311,1.092-.166,2.159-.511,3.243-.725.89-.176,1.79-.295,2.676-.49.986-.217,3.087-.972,3.17.658.09,1.761-1.854,2.3-3.022,3.124.13.225,2-.516,2.237-.591.8-.257,1.537-.721,2.348-.918,1.412-.343,1.241,1.217.462,1.911-.866.771-2.3,1-2.778,2.19.63.227,1.453-.2,2.032-.412q1.14-.418,2.287-.819c1.716-.6,3.346-1.418,5.07-1.986a42.535,42.535,0,0,1,10.98-1.707c-.33-1.279-.69-2.551-.986-3.839-.127-.551-.243-1.1-.339-1.662-.067-.388-.01-1.315-.277-1.621-.325-.372-1.172.151-1.632.141a7.281,7.281,0,0,1-1.2-.316A3.866,3.866,0,0,0,173.936,223.021Zm-66.5,7.405c0,.612-.106,1.353.7,1.425a3.892,3.892,0,0,0,2.441-.331,8.45,8.45,0,0,0-1.59-.424A6.316,6.316,0,0,1,107.436,230.426Zm13.272-11.143a3.9,3.9,0,0,0-.88.35c-.408.139-.823.256-1.24.366-1.253.332-2.865.384-3.44,1.729-.287.671-.486,2.4-1.484,2.391-.887-.006-1.418-1.286-2.05-1.742-.654-.471-1.69-.15-2.4.054s-1.828.474-1.748,1.382a19.137,19.137,0,0,1,.17,1.914c-.007.849-.079,1.7-.079,2.546.5-.689.942-2.075,1.833-2.353s1.41,1.293,1.644,1.9a7.616,7.616,0,0,1,.677,2.4c.007.254-.147.953.029,1.162.157.186.76.051.955.031,1.207-.126,2.407-.282,3.618-.387.622-.054.791-.19.73-.859a7.1,7.1,0,0,1,0-1.554,5.34,5.34,0,0,1,4.194-4.918,15.2,15.2,0,0,1,4.676.17,9.389,9.389,0,0,0,1.763.343c.427-.018.289-.042.376-.444a1.319,1.319,0,0,1,.405-.715c.169-.154.383-.067.542-.268.115-.145.1-.344.152-.511.106-.326.3-.767.679-.849.614-.133,1.266.689,1.576,1.113s.417,1.747.931,1.919c.594.2,1.3-.581,1.424-1.072a5.214,5.214,0,0,0-.144-2.027,3.214,3.214,0,0,0-.069-.509,3.394,3.394,0,0,0-.855-.061c-.569-.027-1.139-.028-1.708-.03a64.453,64.453,0,0,1-6.637-.459c.322.525.874,1.388.308,1.942-.419.411-1.177.2-1.7.289-.744.119-2,.826-2.708.31-1-.728.131-1.979.5-2.667.079-.148.374-.667.249-.84C120.9,219.182,120.867,219.282,120.708,219.283Zm-16.646,8.093c-.51.156-1.025.305-1.546.421-.612.135-1.56,0-1.857.677a2.854,2.854,0,0,0,.07,1.847c.211.584.7.734,1.288.778a9.656,9.656,0,0,0,2.043-.151,6.19,6.19,0,0,1,.817-.1c.16,0,.483.146.625.026.184-.155.063-1.036.048-1.247-.036-.523-.135-1.039-.162-1.562-.019-.376.122-.887-.318-.967A2.883,2.883,0,0,0,104.062,227.376Zm41.212-10.349a6.156,6.156,0,0,1-1.148.107c-.239,0-.524-.085-.745.046-.407.242-.347.879-.333,1.277.017.482.059.972.111,1.452.049.459.3,1.215-.055,1.608-.251-.275-.374-1.172-.858-1.139-.532.036-.286.887-.239,1.191.261,1.684.558,3.369.791,5.057.111.8.254,1.6.328,2.406.05.541.066,1.029.671,1.141a8.829,8.829,0,0,0,1.757-.087c.583-.014.918-.054,1.253-.581-.8-.176-2.077-.068-2.53-.919-.528-.992.586-1.885,1.133-2.563.421-.521,1.28-2.252,2.061-1.224a4.634,4.634,0,0,1,.474,1.366c.231.7.513,1.389.79,2.072a39.323,39.323,0,0,1,7.891-3.22,27.988,27.988,0,0,1-2.1-3.552c-.59-1.446-1.08-2.931-1.683-4.372-.957.559-1.98-.8-2.934-.851A21.589,21.589,0,0,0,145.274,217.027Zm-15,9.748c-.525.313-1.3.921-1.423,1.55-.218,1.087,1.022.36,1.405.122a2.778,2.778,0,0,1,2.507-.35c1.18.394,2.268,1.058,3.535.553.63-.251,2.029-.788,1.651-1.751-.26-.664-1.021-.094-1.424.144-1.053.623-1.926.228-2.978-.221A3.55,3.55,0,0,0,130.276,226.774ZM92.894,221.2c-.421.6.435.468.811.527.786.122,1.6.749,1.38,1.637-.211.866-1.039,1.407-1.2,2.315a2.058,2.058,0,0,0,.748,2.2,2.128,2.128,0,0,0,1.773.063c.65-.422-.157-1.05-.587-1.259-.57-.277-1.03-.427-.748-1.155.344-.887,1.012-1.568.952-2.583a2.491,2.491,0,0,0-1.3-2.146A1.567,1.567,0,0,0,92.894,221.2Zm57.535-2.578c.728-.031.757.849.721,1.283a17.666,17.666,0,0,0,.07,1.817c.016.787.181,3.364-1.21,2.981a7.923,7.923,0,0,1-2.349-1.655c-.661-.507-2.343-1.115-2.452-2.077-.123-1.086,1.2-1.289,1.963-1.462A18.984,18.984,0,0,1,150.428,218.618ZM146.88,190a14.473,14.473,0,0,0-3.4.667c-.744.26-1.886.446-2.414,1.083-.456.551-.258,1.337-.406,1.988-.2.881-.808.76-1.4.21-.706-.658-.91-1.135-1.892-.517a27.512,27.512,0,0,0-5.259,4.917c1.247.378,3.694.469,4.108,2.028.226.852-.456,1.472-1.07,1.937-.792.6-1.619,1.156-2.393,1.781-.723.583-2.344,2.9-2.8.863-.284-1.263.248-2.569.022-3.816-.981,1.582-1.977,3.16-2.876,4.79a17.29,17.29,0,0,0-1.577,4.407c.572.037,1.168-.253,1.734-.082a1.276,1.276,0,0,1,.838,1.215,9.188,9.188,0,0,1-.563,2.7c-.144.6-.31,1.953-1.037,2.147-.829.221-1.349-1.054-1.719-1.572a4.325,4.325,0,0,0-.4,1.953c-.035.426-.273,1.224.206,1.459.449.221,1.395-.056,1.875-.076.89-.038,1.8-.11,2.689-.084.842.025,2.08.475,2.408-.56.224-.7.421-3.236,1.615-1.862.53.61.945,1.305,1.457,1.927a1.783,1.783,0,0,0,1.758.636,22.837,22.837,0,0,1,4.514.468c1.312.208,1.139-.906,1.12-1.9a37.52,37.52,0,0,1,.441-4.672,45.766,45.766,0,0,1,2.454-10.662c-1.044-.356-2.914,1.079-3.686-.01-.634-.9.181-2.129.512-2.966a12.9,12.9,0,0,1,1.3-3.061c.213-.292.516-.684.928-.585.354.085.495.536.694.79.632.808,1.439,1.414,2,2.3a4.815,4.815,0,0,1,.722,1.749c.031.174-.008.531.114.677.38.453,1.576.446,2.108.723,1.815.948,2.453,3.706,3.158,5.446a8.563,8.563,0,0,1,.5,1.5,3.484,3.484,0,0,0,.255,1.1c.411.68,1.687.073,2.313-.033,1.05-.176,2.094-.345,3.148-.493.643-.09,1.579-.323,2.069.246.508.591.216,1.521-.039,2.155-.416,1.035-.948,2.023-1.387,3.048a6.957,6.957,0,0,1-1.2,2.5,1.881,1.881,0,0,1-2.235.258c-.392-.254-1.4-2.707-1.663-2.6a42.721,42.721,0,0,0,1.924,5.635c.228.555.619,1.688,1.2,1.989.477.25,1.561-.222,2.049-.314.463-.087,1.377-.463,1.82-.187.537.334.6,1.226.662,1.779.045.41-.036.717.463.7a5.312,5.312,0,0,0,1.044-.272c.783-.2,1.6-.332,2.394-.461q2.766-.447,5.531-.9c1.585-.263,3.149-.261,4.581-1.013a14.893,14.893,0,0,1,2.331-.752,11.786,11.786,0,0,1,2.333-.512c1.754-.207,3.46-.411,5.193-.766q1.423-.292,2.839-.616c.84-.194,1.652-.5,2.487-.692.7-.158,1.266-.039,1.564-.829a6.793,6.793,0,0,0,.219-1.793c.251-2.707-.7-5.429-.891-8.122-.063-.872-.082-1.747-.148-2.618-.03-.4-.012-1.562-.477-1.777-.042.319-.009.856-.372,1.015.177-.077-.055.866-.068.961-.05.376.074.779.009,1.149a.22.22,0,0,1-.068.294.459.459,0,0,0-.144.2c0,.263.073.108.076.2.036.906-.117,1.845-.051,2.773.069.981.288,1.943.454,2.911.149.868.31,1.738.435,2.611a2.885,2.885,0,0,1-.177,1.872c-.625,1.058-2.435.943-3.489,1.116-1.752.288-3.507.547-5.265.792a17.113,17.113,0,0,1-2.041.319,1.841,1.841,0,0,1-1.58-.822,32.153,32.153,0,0,1-2.3-3.5,2.176,2.176,0,0,0-1.524-1.04,5.689,5.689,0,0,1-1.774-1.094,12.461,12.461,0,0,1-3.415-3.078c-.8-1.34.327-1.785,1.407-2.15a8.7,8.7,0,0,0-1.2-1.86c-.483-.683-.92-1.393-1.44-2.05-1.059-1.34-2.117-2.674-3.145-4.039a19.021,19.021,0,0,0-2.888-3.217,34.143,34.143,0,0,0-3.617-2.522c-.646-.415-1.78-1.476-2.6-1.368-.792.105-1.105,1.581-1.3,2.2a5.849,5.849,0,0,1-.836,2.264c-.777.823-1.585-.474-1.956-1.071-.679-1.095-1.375-2.18-2.053-3.276a7.675,7.675,0,0,1-.939-1.542c0-.007-.088-.494,0-.426l.006.005-.006-.007a2.713,2.713,0,0,0-1.179-.255l-.025,0A8.948,8.948,0,0,0,146.88,190Zm-7.572,30.7c-.649,0-1.3.072-1.943.125a11.374,11.374,0,0,1-1.655-.075c-.7-.042-1.048.031-.887.756.117.527.259,1.229.8,1.452a11.076,11.076,0,0,0,2.494.375c.572.084,1.142.159,1.711.255.378.063.572.13.749-.3a2.5,2.5,0,0,0,0-1.21,3.726,3.726,0,0,0-.15-1.039C140.228,220.661,139.7,220.7,139.307,220.7Zm30.275-7.224a16.424,16.424,0,0,1,2.317,3.046c.44.646,1.3,1.675.676,2.459-.532.667-1.77.515-2.515.547a16.344,16.344,0,0,0-3.24.852c-2.805.687-.475-4.029-.087-5.014.273-.691.554-1.378.884-2.044.149-.3.445-1.175.815-1.29C168.967,211.865,169.243,213.165,169.582,213.475Zm-24.1-9.917a12.648,12.648,0,0,0-.73,2.964,72.257,72.257,0,0,0-1.321,8.649,16.165,16.165,0,0,1,4.6-.77,23.938,23.938,0,0,1,3.3-.175c.193.008.747.106.906-.058.213-.22-.045-.834-.108-1.065-.343-1.257-.493-2.555-.883-3.8-.4-1.274-.88-2.546-1.393-3.777a4,4,0,0,0-1.8-2.221C147.249,202.914,145.975,202.612,145.481,203.558ZM139.4,209.1c.609.918,1.38,1.721,1.974,2.648.422.657.915,1.873-.1,2.291a3.158,3.158,0,0,1-1.147.09c-.576.01-1.146.059-1.723.046-.546-.013-1.086-.079-1.63-.108a2.2,2.2,0,0,1-1.076-.189c-.81-.528-.224-1.608.037-2.3a19.983,19.983,0,0,1,1.012-2.122c.25-.482.624-1.464,1.194-1.661C138.612,207.563,139.115,208.676,139.4,209.1Zm29.518-10.4a41.812,41.812,0,0,1,3.593,4.988c.534.846,1.052,1.7,1.57,2.558a15.507,15.507,0,0,0,1.005,1.784c.941,1.157,1.2-1.368,1.342-1.917.512-2.024,1.145-4.032,1.709-6.043h-.578a22.726,22.726,0,0,1-6.753-.714A8.885,8.885,0,0,0,168.914,198.7Zm-4.864.392c.728.538,5.391,3.7,3.43,4.917a3.611,3.611,0,0,1-1.528.174c-.588.046-1.185.1-1.766.207-.752.135-1.482.37-2.237.49a2.742,2.742,0,0,1-1.933-.169c-.885-.617-.348-1.829-.056-2.614.415-1.115.809-2.607,1.839-3.271.24-.154.533-.706.791-.757C163,197.989,163.754,198.872,164.05,199.09Zm25.725-26.21c-.352.269-.368.828-.459,1.222-.307,1.327-.735,2.618-.989,3.959a13.974,13.974,0,0,0-.2,3.921,5.588,5.588,0,0,0,.628,2.725c.643.9,1.916.855,2.879,1.121.926.257,1.845,1.052.834,1.878-.359.294-.831.341-1.186.624a3.368,3.368,0,0,0-.875,1.486c-.153.421-.149.5.309.65a1.622,1.622,0,0,0,.64.093,3.424,3.424,0,0,0,1.367-.621,8.962,8.962,0,0,1,3.581-1.576,5.275,5.275,0,0,0,1.269,0c.37-.124.256-.2.32-.543a12.128,12.128,0,0,1,1.052-3.935c.343-.609,1.25-1.853,1.857-.906.254.4.346.589.909.468.458-.1.961-.461.871-.99-.086-.5-.742-.839-1.14-1.058a3.406,3.406,0,0,0-1.479-.327c-1.585-.19-.474-2.509-.245-3.38a2.05,2.05,0,0,0-.065-1.748c-.574-.751-1.825-.5-2.612-.4a5.775,5.775,0,0,1-3.3-.269c-1.079-.523-1.538-1.7-2.55-2.277C190.814,172.792,190.159,172.585,189.775,172.88Zm4.734,9.583c.75-.01.385,1.059.18,1.418a1.809,1.809,0,0,1-2.172.772c-.643-.221-1.339-1.2-.332-1.36a4.543,4.543,0,0,0,1.419-.276C193.866,182.886,194.2,182.467,194.509,182.463Zm-1.88-5.685c.466.283-.329,2.089-.463,2.455-.218.6-.412.982.143,1.442.386.32,1.146.6.783,1.233-.336.59-1.489.342-1.958.054-.682-.42-.481-1.223-.33-1.883C190.9,179.646,191.8,176.274,192.629,176.777Zm-73.335-11.861a28.422,28.422,0,0,0,4.424,1.538,13.7,13.7,0,0,0,4,.6c1.266-.07,1.417,1.174.694,2.036-.393.468-.849.456-1.422.475a8.742,8.742,0,0,0-1.926.374,28.543,28.543,0,0,0-2.936.827,6.961,6.961,0,0,0-1.417.694c-.276.184-.892.515-.566.771.471.371,1.869-.137,2.43-.171q1.958-.117,3.906-.359a8.313,8.313,0,0,0,1.92-.39c.394-.151.83-.526,1.276-.431.941.2.475,1.612.047,2.071a7.473,7.473,0,0,1-2.417,1.37c-.573.271-1.142.558-1.7.861-.263.143-1.487.68-1.448,1.087.041.428,1.007.212,1.246.173a19.333,19.333,0,0,0,4.509-1.508c.645-.276,1.3-.542,1.931-.848a6.036,6.036,0,0,1,1.363-.638c1.149-.23,1.1,1.055,1.552,1.748,1.345,2.062,3.944,2.941,5.966,4.133a21.246,21.246,0,0,1,2.2,1.513c.5.388.7.921,1.262.41a5.806,5.806,0,0,0,.991-1.593c.348-.631.813-1.188,1.17-1.814.527-.925.685-1.806-.473-2.147a9.921,9.921,0,0,1-3.211-1.65c-2.536-1.865-4.64-4.246-7.169-6.126-2.343-1.741-4.827-3.375-7.764-3.842A15.037,15.037,0,0,0,119.293,164.917Zm75.977,13.392c-.059.513-.186,1.608-.9,1.649-.866.05-.284-2.582.206-2.878C195.363,176.606,195.321,177.874,195.27,178.309Zm-8.057-.21c-1.081.09-1.389,1.274-.309,1.693Zm4.008-1.039c-.139.537-.089,1.4-.521,1.813-.608.581-.872-.272-.868-.758s.243-1.685.886-1.748C191.269,176.312,190.811,176.95,191.221,177.06ZM202.885,165.1c-.4.823.03,1.634.266,2.443-.485.156-1.139.038-1.435.551a1.9,1.9,0,0,0-.1,1.16c.046.287.281.674.085.94-.256.349-.893.188-1.176.576a2.064,2.064,0,0,0,.415,2.382c.848.624.342-.907.29-1.186-.13-.7.593-.6,1.088-.886.265-.151.313-.181.373-.5a1.964,1.964,0,0,0-.044-.855c-.241-1.088.18-.911,1.044-1.151.746-.207.686-.8.5-1.43-.149-.491-.591-1.3-.112-1.715.19-.166.479-.061.521-.408.028-.234-.286-.618-.451-.753C203.579,163.8,203.116,164.62,202.885,165.1Z" transform="translate(-82.709 -156.556)" fill-rule="evenodd"/>
      </g>
    </g>
  </g>
</svg>
