<svg xmlns="http://www.w3.org/2000/svg" width="12.775" height="12.775" viewBox="0 0 12.775 12.775">
  <path id="chat" d="M4.42,10.329a.319.319,0,0,1,.251.033A4.15,4.15,0,1,0,3.219,8.909a.319.319,0,0,1,.033.251L2.784,10.8ZM11.375,5.4a4.793,4.793,0,0,1,2.8,6.909l.588,2.059a.319.319,0,0,1-.395.395l-2.059-.588a4.793,4.793,0,0,1-6.909-2.8,4.76,4.76,0,0,1-.933-.4l-2.059.588a.319.319,0,0,1-.395-.395L2.6,9.115A4.791,4.791,0,1,1,11.375,5.4Zm.16.733a4.794,4.794,0,0,1-5.4,5.4A4.155,4.155,0,0,0,12.1,13.555a.319.319,0,0,1,.251-.033l1.636.468-.468-1.636a.319.319,0,0,1,.033-.251,4.155,4.155,0,0,0-2.019-5.971Z" transform="translate(-1.999 -2)"/>
</svg>
