<svg xmlns="http://www.w3.org/2000/svg" xmlns:xlink="http://www.w3.org/1999/xlink" width="8.598" height="8.605" viewBox="0 0 8.598 8.605">
  <defs>
    <clipPath id="clip-path">
      <rect width="8.598" height="8.605" fill="none"/>
    </clipPath>
  </defs>
  <g id="Repeat_Grid_2" data-name="Repeat Grid 2" clip-path="url(#clip-path)">
    <g transform="translate(0 -3.389)">
      <path id="link" d="M9.4,9.215a.307.307,0,1,1,.436-.434,2.053,2.053,0,0,1,0,2.9L8.5,13.015a2.042,2.042,0,0,1-2.907-2.868L6.936,8.785a.307.307,0,0,1,.438.432L6.031,10.579a1.427,1.427,0,0,0,2.034,2L9.4,11.245A1.438,1.438,0,0,0,9.4,9.215ZM9.115,9.4a.307.307,0,0,1-.436.434,2.056,2.056,0,0,1,0-2.9L9.964,5.646a2.156,2.156,0,0,1,3.019-.036q.042.04.082.083a2.019,2.019,0,0,1-.1,2.853l-1.392,1.3a.307.307,0,1,1-.419-.45l1.392-1.3a1.4,1.4,0,0,0,.071-1.984q-.028-.03-.057-.058A1.541,1.541,0,0,0,10.4,6.08L9.116,7.371A1.441,1.441,0,0,0,9.115,9.4Z" transform="translate(-5.007 -1.622)"/>
    </g>
  </g>
</svg>
