<svg xmlns="http://www.w3.org/2000/svg" xmlns:xlink="http://www.w3.org/1999/xlink" width="8.989" height="6.296" viewBox="0 0 8.989 6.296">
  <defs>
    <clipPath id="clip-path">
      <rect width="8.989" height="6.296" fill="none"/>
    </clipPath>
  </defs>
  <g id="Repeat_Grid_1" data-name="Repeat Grid 1" clip-path="url(#clip-path)">
    <g transform="translate(0 -4.713)">
      <path id="mail" d="M2.83,10.78a.671.671,0,0,0,.294.067H9.865a.671.671,0,0,0,.294-.067L7.5,8.281l-.866.713a.225.225,0,0,1-.286,0l-.866-.713L2.83,10.78Zm-.316-.319.006-.006L5.136,7.993l-2.6-2.145-.016-.015a.672.672,0,0,0-.066.291v4.049a.672.672,0,0,0,.064.288Zm7.961,0a.672.672,0,0,0,.064-.288V6.124a.672.672,0,0,0-.066-.291l-.016.015-2.6,2.145,2.616,2.462.006.006Zm-.32-4.946a.672.672,0,0,0-.29-.065H3.124a.672.672,0,0,0-.29.065l3.66,3.014,3.66-3.014ZM3.124,5H9.865a1.124,1.124,0,0,1,1.124,1.124v4.049A1.124,1.124,0,0,1,9.865,11.3H3.124A1.124,1.124,0,0,1,2,10.173V6.124A1.124,1.124,0,0,1,3.124,5Z" transform="translate(-2 -0.287)"/>
    </g>
  </g>
</svg>
