<svg xmlns="http://www.w3.org/2000/svg" width="20" height="20" viewBox="0 0 20 20">
  <path id="icon-users" d="M7.869,11.3,3.813,13.386A1.5,1.5,0,0,0,3,14.72v.78A1.5,1.5,0,0,0,4.5,17a.5.5,0,0,1,0,1A2.5,2.5,0,0,1,2,15.5v-.78A2.5,2.5,0,0,1,3.356,12.5l3.358-1.728a5,5,0,1,1,7.424-6.576.5.5,0,0,1-.827.562A4,4,0,1,0,7.92,10.418a.5.5,0,0,1-.052.881Zm4.093,4.268L7.879,17.422A1.5,1.5,0,0,0,7,18.788V19.5A1.5,1.5,0,0,0,8.5,21h11A1.5,1.5,0,0,0,21,19.5v-.712a1.5,1.5,0,0,0-.879-1.366l-4.082-1.855a5.014,5.014,0,0,1-4.077,0Zm-1.039-.626a5,5,0,1,1,6.156,0l3.457,1.571A2.5,2.5,0,0,1,22,18.788V19.5A2.5,2.5,0,0,1,19.5,22H8.5A2.5,2.5,0,0,1,6,19.5v-.712a2.5,2.5,0,0,1,1.465-2.276l3.457-1.571ZM14,15a4,4,0,1,0-4-4A4,4,0,0,0,14,15Z" transform="translate(-2 -2)"/>
</svg>
