<svg xmlns="http://www.w3.org/2000/svg" width="13.608" height="12.852" viewBox="0 0 13.608 12.852">
  <path id="loop" d="M4.291,14.584l1.623,1.623a.378.378,0,1,1-.535.535L3.111,14.473a.378.378,0,0,1,0-.535l2.268-2.268a.378.378,0,1,1,.535.535L4.291,13.828H14.718a1.134,1.134,0,0,0,1.134-1.134V10.426a.378.378,0,1,1,.756,0v2.268a1.89,1.89,0,0,1-1.89,1.89ZM15.317,6.268,13.695,4.645a.378.378,0,1,1,.535-.535L16.5,6.379a.378.378,0,0,1,0,.535L14.229,9.181a.378.378,0,0,1-.535-.535l1.623-1.623H4.89A1.134,1.134,0,0,0,3.756,8.158v2.268a.378.378,0,1,1-.756,0V8.158a1.89,1.89,0,0,1,1.89-1.89Z" transform="translate(-3 -4)" fill="#333"/>
</svg>
