<svg xmlns="http://www.w3.org/2000/svg" width="18" height="18" viewBox="0 0 18 18">
  <path id="home" d="M20,10.736V18.5A2.5,2.5,0,0,1,17.5,21h-3a.5.5,0,0,1-.5-.5v-6a.5.5,0,0,0-.5-.5h-3a.5.5,0,0,0-.5.5v6a.5.5,0,0,1-.5.5h-3A2.5,2.5,0,0,1,4,18.5V10.736l-.182.15a.5.5,0,0,1-.636-.772l8.5-7a.5.5,0,0,1,.636,0l8.5,7a.5.5,0,0,1-.636.772Zm-.993-.818L12,4.148,4.993,9.918A.5.5,0,0,1,5,10v8.5A1.5,1.5,0,0,0,6.5,20H9V14.5A1.5,1.5,0,0,1,10.5,13h3A1.5,1.5,0,0,1,15,14.5V20h2.5A1.5,1.5,0,0,0,19,18.5V10a.5.5,0,0,1,.007-.082Z" transform="translate(-3 -3)"/>
</svg>
