<svg xmlns="http://www.w3.org/2000/svg" width="13.027" height="11.58" viewBox="0 0 13.027 11.58">
  <path id="heart" d="M15.3,8.342c0-2.287-1.243-3.619-3.257-3.619A2.234,2.234,0,0,0,9.837,5.971a.362.362,0,0,1-.647,0A2.234,2.234,0,0,0,6.981,4.724c-2.014,0-3.257,1.332-3.257,3.619,0,1.736,1.917,3.907,5.79,6.444C13.387,12.25,15.3,10.079,15.3,8.342ZM12.047,4c2.425,0,3.981,1.667,3.981,4.342,0,2.094-2.119,4.463-6.317,7.179a.362.362,0,0,1-.393,0C5.119,12.806,3,10.437,3,8.342,3,5.667,4.555,4,6.981,4A3.01,3.01,0,0,1,9.514,5.126,3.01,3.01,0,0,1,12.047,4Z" transform="translate(-3 -4)" fill="#f4546c"/>
</svg>
