<svg id="illustration" xmlns="http://www.w3.org/2000/svg" width="142" height="208.534" viewBox="0 0 142 208.534">
  <g id="variations" transform="translate(0 0)">
    <g id="images" transform="translate(0 0)">
      <g id="a-person_bust" data-name="a-person/bust" transform="translate(0)">
        <g id="body_Fur-Jacket" data-name="body/Fur-Jacket" transform="translate(0 71.239)">
          <path id="_-Background" data-name="ðŸŽ¨-Background" d="M132.925,125.433a2.165,2.165,0,0,1-3.582.1c-9.037,2.106-18.3,1.276-27.465.76-25.82-1.051-51.786,2.243-77.5-1.2-2.728-.546-5.9-.285-8.135-2.178-3.57-4.185-2.8-10.539-2.232-15.637,4.559-28.735,11.039-57.733,14.272-86.653.181-2.755-.954-6.177-1.972-8.767-.251-.482-1.839-.954-2.664-1.51-2.529-1.816-2.119-5.071.073-6.98C30.819-1.639,40.7.111,48.231,1.957c1.443-5.423,3.065-8.989,5.813-9.342,5.23-.672,17.917-2.726,21.825,0,1.87,1.3,3.069,5.9,4.415,8.139C90.1.58,110.018-12.556,114.113,2.236c3.327.23,6.623,3.136,5.986,6.623,4.315,3.814.912,9.534.971,14.282.567,10.074,6.016,19.083,8.283,28.814,5.182,18.874,11.046,53.2,4.62,71.627.138-.072.44.037.245.19C133.49,123.977,133.4,124.894,132.925,125.433Z" transform="translate(-4.061 8.76)" fill="#fff" fill-rule="evenodd"/>
          <path id="_-Ink" data-name="ðŸ–-Ink" d="M18.564,121.111a270.892,270.892,0,0,0,2.053-31.128.713.713,0,0,0-1.426,0,270.891,270.891,0,0,1-2.053,31.128c-.113.91,1.314.9,1.426,0m8.929-60.023c1.862,1.139,4.308.349,6.151-.405.839-.344.47-1.723-.379-1.375-1.4.574-3.453,1.42-4.934.619s-1.544-3-1.555-4.45a.713.713,0,0,0-1.426,0c.015,1.974.279,4.471,2.142,5.612m3.447,44.3a14.069,14.069,0,0,0,4.773-3.953c.561-.727-.678-1.436-1.231-.72a12.515,12.515,0,0,1-4.261,3.441c-.818.419-.1,1.65.72,1.231m9.032-49.781a242.269,242.269,0,0,1,6.448,39.361q.323,4.044.453,8.082.128,1.054.244,2.111a69.89,69.89,0,0,1,.494,8.052c-.009,1.2-.046,2.4-.128,3.6.143-.4.274-.8.4-1.205.262-.822.435-1.674.7-2.491.221-.676.506-1.323.772-1.977v0c-.08-2.68.1-5.385.194-8.052.119-3.455.267-6.907.344-10.364.153-6.914.077-13.834-.173-20.745-.5-13.925-1.766-27.784-3.042-41.652-.355-3.857-.736-7.711-1-11.575-.266-3.9-.372-7.816-.4-11.732a.261.261,0,0,1,.5-.084,18.625,18.625,0,0,1,.4-2.753c-3.074,1.961-6.316,3.657-9.494,5.44-1.674.94-3.34,1.9-5.065,2.737-.948.463-1.905.89-2.882,1.293-1.012.417-1.98.991-3.094.7a1.243,1.243,0,0,1-.274-.107c.127.241.253.48.374.722.421.836.822,1.676,1.21,2.523a.917.917,0,0,1,.266.319q.283.554.551,1.12l.107-.1a.159.159,0,0,1,.225.225c-.061.069-.119.137-.178.207,1.162,2.5,2.107,5.131,3.08,7.7q1.794,4.734,3.4,9.535,3.157,9.443,5.57,19.113m46.095,46.905A123.468,123.468,0,0,1,102.9,113.6c.728.559,1.437-.68.72-1.232A123.5,123.5,0,0,0,86.787,101.28c-.81-.433-1.529.8-.719,1.232m20.07-37.285a.731.731,0,0,0,.687-.523,13.71,13.71,0,0,0,.411-6.13c-.2-.9-1.574-.515-1.375.379a11.226,11.226,0,0,1-.294,4.881c-5.183.227-10.3-1.634-15.254-2.883a.714.714,0,0,0-.379,1.375c5.26,1.325,10.7,3.309,16.2,2.9M2.962,117.818a.349.349,0,0,1-.014-.039,10.883,10.883,0,0,1-.346-2.965,41.652,41.652,0,0,1,.159-5.165A75.277,75.277,0,0,1,4.637,98.954c1.67-6.982,4.03-13.775,5.311-20.852,2.515-13.891,1.918-28.354,6.853-41.753A47.35,47.35,0,0,1,25.764,21q-.436-1.327-.85-2.66A42.054,42.054,0,0,1,23.64,13.6c-.007-.043-.016-.087-.021-.132a5.478,5.478,0,0,1-3.5-3.942,4.516,4.516,0,0,1,.36-2.434,3.008,3.008,0,0,1-1.041-2.607c.2-2.115,2.668-2.659,4.386-3.072A17.425,17.425,0,0,1,29.8,1.035a18.008,18.008,0,0,1,2.982.574,6.342,6.342,0,0,1,2.447,1.07.118.118,0,0,1-.082.2c-1.374-.005-2.743-.51-4.131-.576a17.161,17.161,0,0,0-4.331.351,15.726,15.726,0,0,0-4.051,1.382c-.356.187-.879.314-.46.692a2.465,2.465,0,0,0,1.3.341A1.787,1.787,0,0,1,25.212,6.6a1.755,1.755,0,0,1-1.265,1.938.842.842,0,0,0-.132.039c-.023.045-.059.082-.055.021,0,0,0,0,0,0-.021.13-.029.182-.029.191A.7.7,0,0,0,23.75,8.7c-.005.032-.016.084-.03.16.02-.084,0,.121.02.153.463.856,1.834,1.1,2.632,1.466a1.817,1.817,0,0,1,.4.249c.189-.066.381-.132.576-.2.957-.358,1.912-.706,2.882-1.029C32.1,8.868,34,8.31,35.869,7.682,39.413,6.495,42.838,5,46.315,3.637a11.822,11.822,0,0,1,.39-1.2c.03-.082.176-.109.192,0,.053.346.1.694.132,1.043a.166.166,0,0,1,.011.1c.2,2.033.148,4.113.251,6.144.128,2.532.487,5.046.588,7.579v.046q.561,3.244,1.019,6.51a1.453,1.453,0,0,1,1.141.13,22.545,22.545,0,0,0,9.27,2.557A27.79,27.79,0,0,0,64.15,26.4c1.06-.121,2.1-.342,3.151-.553-.551-2.309-1.142-4.607-1.811-6.882a52.278,52.278,0,0,0-1.921-5.531c-.765-1.817-1.716-3.552-2.6-5.313A1.327,1.327,0,0,1,62.1,6.145c.314.025.627.045.943.059a63.8,63.8,0,0,0,9.291-.5c3.449-.349,6.944-.712,10.362-1.28a.2.2,0,0,1,.107.387c-1.622.546-3.224,1.162-4.887,1.571-1.711.423-3.433.808-5.169,1.109q-2.494.431-5.008.731c-1.093.134-2.2.2-3.3.291a36.335,36.335,0,0,1,3.392,7.668c1.142,3.377,1.982,6.852,2.8,10.32q2.636,11.15,4.34,22.5Q76.2,57.12,76.942,65.3q.219-2.485.526-4.957A139.951,139.951,0,0,1,80.44,44.073a1.072,1.072,0,0,1-.134-.7,19.327,19.327,0,0,1,1.408-4.12q.815-2.862,1.761-5.684a64.8,64.8,0,0,1,2.549-7.549A52.612,52.612,0,0,1,88.7,20.543a77.218,77.218,0,0,1,3.941-7.226,1.507,1.507,0,0,1,.369-.587q.393-.62.8-1.227c.176-.264.683-.1.549.232-.062.157-.125.314-.189.469,5.858-1.466,11.6.775,17.183,2.43a43.024,43.024,0,0,0,4.274,1.07,9.707,9.707,0,0,0,3.589.239c.757-.157,1.093-.5.724-1.31a4.248,4.248,0,0,0-2.326-1.76,3.214,3.214,0,0,1-1-.4,1.783,1.783,0,0,1-.727-2.22,1.757,1.757,0,0,1,2.1-1.029l.355.141a.317.317,0,0,0,.039-.078c.119-.326.171.064.119-.4-.086-.763-.893-1.457-1.445-1.894a6.418,6.418,0,0,0-5.133-1.483,3.613,3.613,0,0,0-.4.114c-1.827.633-2.716-2-1.257-2.979.089-.059.2-.134.324-.221.608-.423,1.5-1.134,1.255-1.776-.3-.8-2.066-1.255-2.734-1.526a23.091,23.091,0,0,0-7.633-1.651,25.032,25.032,0,0,0-7.806.882,26.326,26.326,0,0,0-3.688,1.4C88.931.229,86.639.859,86.493,2.193a.277.277,0,0,1-.542.073C85.233-.295,88.02-1.948,89.86-3a20.05,20.05,0,0,1,3.9-1.555,22.683,22.683,0,0,1,3.887-.893,26.136,26.136,0,0,1,8.528.207,17.544,17.544,0,0,1,7.491,3A3.809,3.809,0,0,1,115,1.948l-.053.157a9.907,9.907,0,0,1,5.906,3.552c1.191,1.5,1.814,3.594.749,5.344.045.032.089.066.132.1a5.5,5.5,0,0,1,2,3.284,4.322,4.322,0,0,1-3.249,5.008c.533.521,1.044,1.073,1.545,1.626a38.138,38.138,0,0,1,3.137,3.965,62.548,62.548,0,0,1,4.981,8.885,70.536,70.536,0,0,1,5.782,19.9,98.547,98.547,0,0,1,.954,10.416c.146,3.976,0,7.954.075,11.932A54.962,54.962,0,0,0,138.307,87.4c.818,3.564,1.909,7.057,2.9,10.575a94.153,94.153,0,0,1,2.928,11.99,28.374,28.374,0,0,1,.346,6.265,22.56,22.56,0,0,1-1.661,5.964,1,1,0,0,1-1.18.6,6.04,6.04,0,0,1-1,2.69,7.541,7.541,0,0,1-4.9,3.193,30.172,30.172,0,0,1-6.888.257c-2.486-.089-4.974-.169-7.461-.273q-3.9-.161-7.809-.329.129-4,.3-8c.628-14.421,1.616-28.851,1.642-43.291a.761.761,0,0,0,.147-.111,25.579,25.579,0,0,1,3.962-2.764c.765-.5.05-1.736-.72-1.231-1.14.748-2.327,1.412-3.4,2.25-.006-1.5-.019-3.006-.049-4.51a.713.713,0,0,0-1.426,0c.089,4.531.06,9.062-.043,13.593-.332,14.681-1.374,29.334-1.849,44.009-6.986-.3-13.973-.6-20.961-.855l-17.051-.62a2.078,2.078,0,0,1-2.009-2.01,8.738,8.738,0,0,1,1.372-5.894,2.334,2.334,0,0,1,.412-.472c-.027-1.228-.077-2.459-.007-3.687.1-1.876.258-3.751.394-5.625.274-3.753.487-7.513.57-11.275q.257-11.286-.38-22.569A279.512,279.512,0,0,0,68.4,30.661c-.237-1.07-.476-2.14-.724-3.208a18.807,18.807,0,0,1-8.37,1.8,23.4,23.4,0,0,1-9.982-2.225c.021.162.043.323.062.485.873,6.954,1.609,13.921,2.251,20.9C52.92,62.325,53.7,76.291,53.6,90.262c-.03,3.871-.178,7.729-.362,11.595a52.32,52.32,0,0,1-1.568,11.878,1.022,1.022,0,0,1-.7.747c-.016.553-.052,1.107-.091,1.653-.127,1.774-.488,5.459-1.262,7.067A7.109,7.109,0,0,1,46,126.7c-2.035.868-4.236.619-6.386.479-9.346-.61-18.685-1.426-28.026-2.143q-1.952-.15-3.9-.3a7.686,7.686,0,0,1-3.379-.768c-1.167-.683-2.078-4.037-1.675-5.424a2.729,2.729,0,0,1,.33-.727" transform="translate(-2.535 8.282)" fill-rule="evenodd"/>
        </g>
        <g id="head_hat-hip" data-name="head/hat-hip" transform="translate(11.308 0)">
          <path id="_-Background-2" data-name="ðŸŽ¨-Background" d="M9.739,53.467a92.42,92.42,0,0,1,.743-12.024,18.119,18.119,0,0,1,4.92-10.17c5.827-5.965,14.273-7.421,22.135-8.756l13.442-2.283c4.1-.7,8.476-1.809,12.619-.822a13.11,13.11,0,0,1,5.36,2.954,18.762,18.762,0,0,1,4.2,4.408,16.379,16.379,0,0,1,1.73,5.731q.57,3.322.885,6.684a83.768,83.768,0,0,1,.173,13.49c-.148,2.179-.383,4.351-.683,6.514Q75.044,60.8,74.76,62.4c-.056.314-.1.662-.156,1.014a10.688,10.688,0,0,1,.646,3.7c-.057,3.664-3.149,5.971-6.266,7.21-1.807.718-3.7,1.206-5.472,2.009a12.283,12.283,0,0,0-4.417,3.773,42.977,42.977,0,0,1-8.323,7.884c-6.655,4.732-15.083,6.97-23.158,5.272a20.625,20.625,0,0,1-5.633-1.994A12.6,12.6,0,0,1,17.6,87.076,40.992,40.992,0,0,1,12.727,76.6a60.775,60.775,0,0,1-2.5-11.4,86.793,86.793,0,0,1-.487-11.735Z" transform="translate(8.388 -6.184)" fill="#fff" fill-rule="evenodd"/>
          <path id="_-Ink-2" data-name="ðŸ–-Ink" d="M47.922,3.94c-5.562-.765-13.24,1.722-16.01,6.739C18.686,7.56,2.006,7.458-8.895,17.841-20.269,30.158-5.982,46.4,3.491,50.06c-.69,3.353.386,24.835,8,34.417,6.039,8.119,20.1,11.866,26.61,2.168l.051-.08c.7-1.12.1-1.084-.619-.251-6.372,5.606-15.036,5.7-21.713-.214C3.3,75.287,4.592,48.772,10.546,33.433,27.5,31.57,45.654,36.711,57.364,49.479l-.792,4.769c-.135.813-.288,1.624-.405,2.44a1.74,1.74,0,0,0,.279,1.465c1.195,1.4,3.208-.7,4.865-1.536a6.976,6.976,0,0,1,1.46-.062c7.959,1.026,6.391,16.471-2.357,13.764-.735-.458-1.366-.318-1.652.346-2.085,1.911-3.46,5.318-6.924,8.6a28.616,28.616,0,0,1-3.709,3.249c-.808.817-3.244,1.65-2.472,3.048,1.461,3.181,10.075-6.811,11.6-9.575,4.772,1.885,10.06,1.245,15,.784,26.087-1.357,22.6-28.866,1.222-46.234A59.781,59.781,0,0,0,60.4,23.293c-.63-.254-.355-1.289.284-1.032a63.823,63.823,0,0,1,8.871,4.394l0-1.014a27.6,27.6,0,0,0-.319-5.048,12.232,12.232,0,0,0-.782-3.106C67.982,14.824,60.547,5.679,47.922,3.94Zm15.2,56.16c-.4-.383-1.155.074-1.513.062a5.743,5.743,0,0,0-2.468.991,6.642,6.642,0,0,0-1.026.7l-.007,0,.007,0-.025.017c-.383.272-1.783,1.8-.9,1.391.066-.086.133-.168.2-.249a.164.164,0,0,0,.03.032l-.05.074c-.752,1.132.546-.061.746-.377a.179.179,0,0,0,.031.018l-.26.317-.089.111-.055.053c-.869.855-.9,1.624.113.36a.409.409,0,0,0-.076.179l-.06.076c-.793,1.022-.148.659.246.223L58,64.047l-.007.01c-.367.565.361.169.489-.134l.005-.014a1.741,1.741,0,0,0,.256-.275l.005-.005a6.567,6.567,0,0,1,2.51-1.559c.122-.023.245-.042.369-.055a11.147,11.147,0,0,1,1.531-.232.286.286,0,0,0,.175-.114c.78-.026.539-.346.216-.406h-.006l.064-.005c.5-.049.842-.229.336-.339l-.064-.013c.008-.012.015-.025.022-.037.433-.048.151-.469-.09-.367.1-.331-.361-.166-.419-.215a.281.281,0,0,0-.13-.094C63.123,60.1,63.19,60.1,63.118,60.1ZM60.466,54.74l.1.059a.867.867,0,0,0,.251.1q-.18.076-.355.165c0-.072,0-.144,0-.215Z" transform="translate(13.099 -3.804)" fill-rule="evenodd"/>
        </g>
        <g id="face_Smiling" data-name="face/Smiling" transform="translate(33.441 39.225)">
          <path id="_-Ink-3" data-name="ðŸ–-Ink" d="M27.33,44.675a7.256,7.256,0,0,0,3.049-2.346,1.408,1.408,0,0,0,.285-1.095,1.579,1.579,0,0,0-.614-.989,1.47,1.47,0,0,0-1.1-.3,1.379,1.379,0,0,0-.931.615l-.055.076a4.8,4.8,0,0,1-1.76,1.477,3.965,3.965,0,0,1-2.178.383,5.846,5.846,0,0,1-3.55-2.035c-.133-.136-.266-.276-.4-.419a.629.629,0,0,0-.332-.256.714.714,0,0,0-.458.007.727.727,0,0,0-.36.273.668.668,0,0,0-.114.442,4.58,4.58,0,0,0,1.51,2.894,6.476,6.476,0,0,0,7.009,1.27ZM23.012,27.459c-1.346.818-3.4,2.727-1.949,4.756,1.7,1.789,4.158-.262,5.367-1.19,1.121-.719,2.381,1.13,1.341,1.97-8.737,6.471-12.283-5.321-5.44-6.5C23.084,26.367,23.364,27.206,23.012,27.459Zm15.657-7.528c-.149-1.846-2.96-2.266-3.239-.439a7.482,7.482,0,0,0,.781,4.614,1.374,1.374,0,0,0,2.608-.531A14.887,14.887,0,0,0,38.669,19.931Zm-21.4-.817a1.5,1.5,0,0,0-1.636-.666c-2.118.619-1.494,3.628-.75,5.092a1.473,1.473,0,0,0,2.3.3c.962-1.142,1.423-3.422.2-4.547A1.546,1.546,0,0,0,17.27,19.114Zm18.97-7.262-.335-.059c-1.035-.179-2.322-.351-3.054.481a1.21,1.21,0,0,0,0,1.685c.918.743,1.933.455,3.034.518a12.067,12.067,0,0,1,2.652.452,18.021,18.021,0,0,1,5.114,2.646c.215.144.434-.131.332-.332a10.567,10.567,0,0,0-4.61-4.3A11.4,11.4,0,0,0,36.241,11.851ZM19.2,11.022l-.256.052c-2.787.583-6.408,1.747-7.728,4.485-.05.387,0,.47.046.524l.014.018a.361.361,0,0,0,.232.163l.141-.035a8,8,0,0,0,1.547-.6l.5-.248a13.842,13.842,0,0,1,1.794-.765,21.125,21.125,0,0,1,4.087-.9,1.677,1.677,0,0,0,.82-.311,1.232,1.232,0,0,0,.459-.7,1.253,1.253,0,0,0-.141-1.047,1.327,1.327,0,0,0-.647-.558A1.518,1.518,0,0,0,19.2,11.022Z" transform="translate(-11.197 -10.99)" fill-rule="evenodd"/>
        </g>
        <g id="facial-hair_Moustache-4" data-name="facial-hair/Moustache-4" transform="translate(26.641 57.59)">
          <path id="_-Ink-4" data-name="ðŸ–-Ink" d="M21.349,2.418C21.94,1.625,23,.584,24.076.64A.153.153,0,0,1,24.182.9c-.351.429-.831.734-1.183,1.172a5.393,5.393,0,0,0-.913,1.776,5.3,5.3,0,0,0-.109,2.893,5.515,5.515,0,0,0,3.4,3.47,5.382,5.382,0,0,0,4.8-.075c2.127-1.32,3.931-3.222,6.6-3.26a1.482,1.482,0,0,1,1.329.687,1.53,1.53,0,0,1,1.309-.68c3-.034,5.234,2.03,7.75,3.317a7.647,7.647,0,0,0,5.654.025c1.654-.542,3.45-1.63,4.075-3.348a4.408,4.408,0,0,0-.086-2.992,5.312,5.312,0,0,0-1.036-1.693C55.31,1.687,54.7,1.372,54.232.9A.152.152,0,0,1,54.339.64c2-.136,3.814,2.258,4.193,4a5.449,5.449,0,0,1-1.308,4.722c-2.287,2.654-6.522,3.529-9.818,2.749-2.668-.631-5.2-2.084-7.991-1.876a1.389,1.389,0,0,1-1.315-.6,1.352,1.352,0,0,1-1.322.6c-2.6-.252-4.919,1.59-7.442,2.039a8.506,8.506,0,0,1-5.9-1.207,6.375,6.375,0,0,1-3.149-5.111,5.627,5.627,0,0,1,1.063-3.535" transform="translate(-20.282 -0.634)" fill-rule="evenodd"/>
        </g>
      </g>
    </g>
  </g>
</svg>
